<?xml version="1.0" standalone="no"?>
<!DOCTYPE svg PUBLIC "-//W3C//DTD SVG 20010904//EN"
 "http://www.w3.org/TR/2001/REC-SVG-20010904/DTD/svg10.dtd">
<svg version="1.0" xmlns="http://www.w3.org/2000/svg"
 width="562.000000pt" height="750.000000pt" viewBox="0 0 562.000000 750.000000"
 preserveAspectRatio="xMidYMid meet">

<g transform="translate(0.000000,750.000000) scale(0.100000,-0.100000)"
fill="#000000" stroke="none">
<path d="M2978 7093 c14 -5 16 -19 2 -28 -6 -4 -5 -13 2 -25 9 -14 14 -16 20
-7 11 18 10 29 -4 21 -7 -4 -8 -3 -4 4 5 9 12 8 26 0 15 -9 22 -10 31 -1 8 8
6 11 -7 10 -11 -1 -18 4 -16 11 1 6 -4 12 -10 12 -7 0 -22 2 -33 4 -11 2 -14
1 -7 -1z"/>
<path d="M2580 6970 c-12 -7 -10 -9 7 -7 12 0 19 5 17 9 -6 10 -6 10 -24 -2z"/>
<path d="M2983 6969 c9 -6 15 -14 12 -20 -4 -5 1 -9 9 -9 9 0 16 2 16 4 0 10
-32 36 -43 36 -7 0 -4 -5 6 -11z"/>
<path d="M2539 6957 c-14 -10 -15 -16 -4 -30 7 -9 16 -17 20 -17 4 0 2 7 -5
15 -10 12 -10 18 0 30 15 18 11 19 -11 2z"/>
<path d="M2786 6961 c-4 -6 -2 -11 3 -11 6 0 11 -7 11 -15 0 -8 7 -15 15 -15
8 0 15 4 15 9 0 5 3 18 7 28 6 15 4 16 -8 6 -11 -9 -19 -9 -26 -2 -8 8 -13 8
-17 0z"/>
<path d="M2910 6954 c0 -16 25 -35 41 -31 8 2 11 2 7 0 -5 -3 -8 -9 -8 -15 0
-7 4 -7 13 1 10 8 17 7 25 -1 7 -7 12 -8 12 -2 0 12 -41 38 -60 38 -8 0 -18 5
-22 11 -5 7 -8 6 -8 -1z"/>
<path d="M2560 6943 c0 -6 8 -17 18 -24 16 -13 16 -13 2 6 -8 11 -16 22 -17
24 -2 2 -3 0 -3 -6z"/>
<path d="M2846 6931 c-3 -5 7 -8 23 -7 16 0 27 4 25 8 -7 11 -42 10 -48 -1z"/>
<path d="M2750 6909 c0 -5 5 -7 10 -4 6 3 10 8 10 11 0 2 -4 4 -10 4 -5 0 -10
-5 -10 -11z"/>
<path d="M2881 6877 c-13 -21 -12 -21 5 -5 10 10 16 20 13 22 -3 3 -11 -5 -18
-17z"/>
<path d="M3385 6820 c3 -5 8 -10 11 -10 2 0 4 5 4 10 0 6 -5 10 -11 10 -5 0
-7 -4 -4 -10z"/>
<path d="M3410 6818 c0 -4 4 -8 9 -8 6 0 12 4 15 8 3 5 -1 9 -9 9 -8 0 -15 -4
-15 -9z"/>
<path d="M3346 6784 c-3 -8 -12 -14 -21 -14 -8 0 -15 -4 -15 -10 0 -16 27 -12
34 6 3 8 10 13 15 9 5 -3 12 -1 15 4 3 5 0 11 -8 14 -8 3 -17 -1 -20 -9z"/>
<path d="M2440 6776 c0 -9 5 -16 10 -16 6 0 10 4 10 9 0 6 -4 13 -10 16 -5 3
-10 -1 -10 -9z"/>
<path d="M2150 6775 c0 -5 5 -17 10 -25 5 -8 10 -10 10 -5 0 6 -5 17 -10 25
-5 8 -10 11 -10 5z"/>
<path d="M2214 6735 c3 -21 16 -31 16 -12 0 9 -4 18 -9 21 -5 4 -8 -1 -7 -9z"/>
<path d="M3277 6743 c-4 -3 -7 -11 -7 -17 0 -6 5 -4 10 4 8 12 10 11 10 -6 0
-12 7 -24 15 -28 14 -5 13 -2 0 24 -17 32 -18 33 -28 23z"/>
<path d="M2255 6730 c-3 -6 1 -7 9 -4 18 7 21 14 7 14 -6 0 -13 -4 -16 -10z"/>
<path d="M2105 6711 c3 -5 1 -12 -4 -16 -20 -12 20 -72 55 -83 19 -6 34 -6 34
-1 0 5 5 9 10 9 6 0 9 -3 9 -7 -3 -19 2 -23 20 -14 15 9 20 7 25 -12 4 -16 8
-19 16 -11 9 9 8 18 -1 35 -7 13 -15 31 -19 39 -4 8 -17 16 -29 16 -12 1 -27
6 -34 13 -6 6 -21 11 -33 11 -12 0 -24 7 -28 15 -3 8 -10 15 -16 15 -6 0 -9
-4 -5 -9z"/>
<path d="M2080 6656 c0 -9 5 -16 10 -16 6 0 10 4 10 9 0 6 -4 13 -10 16 -5 3
-10 -1 -10 -9z"/>
<path d="M2278 6646 c5 -6 9 -24 10 -39 2 -31 8 -38 65 -80 20 -16 46 -46 58
-68 17 -34 24 -40 44 -35 15 4 25 1 29 -10 8 -21 -11 -54 -31 -54 -13 0 -14
-9 -8 -57 3 -32 12 -63 19 -68 8 -6 25 -27 38 -47 l26 -37 5 35 c3 20 2 47 -4
60 -6 16 -5 32 1 44 15 28 13 250 -2 250 -9 0 -9 3 -1 11 22 22 -13 68 -52 68
-18 0 -75 10 -168 30 -27 6 -35 5 -29 -3z m188 -57 c10 -17 -23 -46 -37 -32
-7 7 -9 19 -6 27 7 18 33 21 43 5z m-106 -19 c0 -5 -5 -10 -11 -10 -5 0 -7 5
-4 10 3 6 8 10 11 10 2 0 4 -4 4 -10z m105 -90 c-3 -5 -10 -10 -16 -10 -5 0
-9 5 -9 10 0 6 7 10 16 10 8 0 12 -4 9 -10z m45 -140 c0 -5 -4 -10 -9 -10 -6
0 -13 5 -16 10 -3 6 1 10 9 10 9 0 16 -4 16 -10z"/>
<path d="M3030 6629 c0 -8 -17 -10 -49 -7 l-50 5 -15 -48 c-20 -59 -22 -174
-5 -211 16 -36 25 -35 33 2 3 19 12 30 23 31 11 0 13 3 6 6 -20 8 -15 23 7 23
11 0 20 6 20 13 0 8 9 22 20 32 19 17 19 20 5 42 -18 27 -11 47 15 40 24 -6
46 68 23 77 -22 9 -33 7 -33 -5z"/>
<path d="M3498 6564 c-21 -11 -28 -22 -28 -45 0 -17 -6 -32 -15 -35 -8 -4 -13
-10 -10 -14 3 -5 -4 -34 -16 -67 -12 -32 -24 -65 -27 -73 -3 -8 -4 -23 -3 -32
1 -10 -2 -18 -7 -18 -5 0 -7 -21 -6 -47 2 -37 -2 -50 -18 -65 -16 -14 -18 -21
-9 -32 9 -11 8 -17 -4 -29 -8 -9 -12 -22 -9 -30 3 -9 -2 -27 -12 -41 -15 -24
-15 -26 0 -20 10 4 16 1 16 -7 0 -12 2 -12 9 0 5 7 14 10 20 6 8 -4 3 -13 -14
-26 -24 -19 -52 -18 -40 2 4 5 2 9 -3 9 -13 0 -24 -29 -16 -42 4 -6 -1 -17
-11 -25 -17 -12 -17 -13 -2 -13 22 0 22 -16 -2 -32 -10 -7 -19 -17 -20 -23 -3
-22 -36 -95 -43 -95 -5 0 -8 -5 -8 -10 0 -6 17 -1 37 10 26 14 39 17 42 8 2
-6 -4 -17 -13 -23 -9 -7 -16 -17 -16 -23 0 -18 -37 -34 -43 -19 -3 6 -6 3 -6
-8 0 -20 20 -55 33 -55 4 0 5 4 1 9 -3 5 3 26 12 45 15 29 24 36 48 36 25 1
27 2 13 11 -24 14 -23 39 2 39 11 0 24 8 27 18 4 9 15 24 25 33 10 9 18 22 18
28 0 7 4 9 10 6 6 -4 7 1 3 11 -5 13 -3 16 10 11 11 -4 17 -1 17 8 0 8 5 15
10 15 6 0 10 11 10 25 0 14 5 25 10 25 6 0 10 6 10 14 0 8 8 17 17 20 15 6 15
8 3 16 -9 6 -10 10 -3 10 6 0 14 -4 18 -10 3 -5 12 -7 19 -4 8 3 17 1 21 -5 3
-7 0 -8 -9 -5 -11 4 -13 0 -9 -16 4 -16 8 -18 14 -9 4 8 11 10 15 6 4 -3 1
-13 -6 -22 -18 -21 -5 -31 15 -11 21 21 27 20 23 -1 -1 -10 1 -23 4 -29 4 -5
-6 -26 -23 -45 -16 -19 -29 -38 -29 -42 0 -5 -12 -22 -27 -38 -20 -21 -27 -37
-25 -58 2 -16 -2 -32 -9 -37 -8 -4 -10 -3 -5 4 4 7 4 17 1 22 -7 11 -65 -61
-65 -79 0 -5 -11 -23 -25 -39 -17 -20 -22 -33 -15 -37 6 -4 9 -12 7 -19 -3 -7
10 -11 36 -11 36 0 41 -3 49 -30 6 -22 4 -33 -7 -41 -8 -6 -15 -17 -15 -23 0
-8 -8 -10 -20 -6 -16 5 -20 2 -20 -17 0 -13 -6 -30 -12 -38 -7 -7 -1 -5 13 6
15 10 24 23 21 28 -3 5 0 6 7 2 16 -10 53 3 45 16 -4 6 -2 8 4 5 5 -4 20 -3
33 1 l23 9 -27 23 c-31 27 -35 42 -9 39 53 -5 63 0 56 29 -4 15 -11 30 -17 33
-5 4 -3 9 4 12 11 5 10 8 -3 17 -21 13 -24 30 -5 30 8 0 19 -10 24 -22 10 -22
11 -21 22 17 15 55 14 62 -9 68 -33 9 -22 25 23 33 23 4 35 9 26 11 -20 5 -32
44 -19 57 13 13 13 29 0 21 -5 -3 -10 1 -10 10 0 9 4 14 9 10 5 -3 12 -1 16 5
4 6 11 8 16 5 5 -4 9 3 9 14 0 10 3 28 7 38 6 15 4 16 -9 5 -13 -10 -17 -10
-22 3 -5 13 5 20 27 16 4 0 8 20 9 46 1 27 2 66 4 88 3 74 -6 115 -27 115 -23
0 -25 23 -4 40 27 22 10 174 -23 198 -12 9 -14 15 -5 20 8 5 6 23 -9 67 -26
79 -44 90 -100 59z m2 -28 c0 -3 -4 -8 -10 -11 -5 -3 -10 -1 -10 4 0 6 5 11
10 11 6 0 10 -2 10 -4z m60 -110 c0 -3 -4 -8 -10 -11 -5 -3 -10 -1 -10 4 0 6
5 11 10 11 6 0 10 -2 10 -4z m15 -75 c10 -17 -12 -21 -25 -6 -10 12 -10 15 3
15 9 0 18 -4 22 -9z m-70 -51 c0 -22 -29 -18 -33 3 -3 14 1 18 15 15 10 -2 18
-10 18 -18z m65 -15 c0 -8 -4 -15 -10 -15 -5 0 -10 7 -10 15 0 8 5 15 10 15 6
0 10 -7 10 -15z m-52 -67 c13 -13 16 -45 5 -51 -18 -10 -63 -17 -62 -10 4 22
-3 32 -16 27 -8 -4 -15 -1 -15 5 0 6 6 11 14 11 7 0 19 7 26 15 15 18 32 19
48 3z m-106 -83 c0 -5 -5 -11 -11 -13 -6 -2 -11 4 -11 13 0 9 5 15 11 13 6 -2
11 -8 11 -13z m228 -10 c0 -28 -8 -31 -35 -12 -21 16 -12 37 16 37 14 0 19 -7
19 -25z m-150 -9 c0 -8 -4 -17 -9 -21 -12 -7 -24 12 -16 25 9 15 25 12 25 -4z
m-36 -27 c8 -12 19 -18 25 -14 6 3 14 -1 17 -10 8 -21 -2 -31 -18 -17 -10 8
-20 6 -38 -8 -33 -26 -37 -25 -43 8 -3 17 0 33 10 45 21 22 29 22 47 -4z m116
12 c0 -5 2 -16 5 -23 4 -9 -2 -14 -17 -15 -28 -2 -49 14 -41 33 6 15 53 20 53
5z m66 -26 c4 -8 1 -21 -5 -29 -6 -7 -8 -16 -4 -19 3 -4 2 -7 -3 -7 -28 0 -46
53 -21 63 21 9 27 7 33 -8z m-256 -145 c0 -5 -5 -10 -11 -10 -5 0 -7 5 -4 10
3 6 8 10 11 10 2 0 4 -4 4 -10z m-30 -120 c0 -5 -7 -10 -16 -10 -8 0 -12 5 -9
10 3 6 10 10 16 10 5 0 9 -4 9 -10z m160 -180 c0 -5 -4 -10 -10 -10 -5 0 -10
5 -10 10 0 6 5 10 10 10 6 0 10 -4 10 -10z m-46 -31 c-3 -5 -10 -7 -15 -3 -5
3 -7 10 -3 15 3 5 10 7 15 3 5 -3 7 -10 3 -15z m64 -10 c-2 -6 -8 -10 -13 -10
-5 0 -11 4 -13 10 -2 6 4 11 13 11 9 0 15 -5 13 -11z"/>
<path d="M2173 6533 c9 -2 23 -2 30 0 6 3 -1 5 -18 5 -16 0 -22 -2 -12 -5z"/>
<path d="M2011 6478 c-10 -32 -41 -190 -41 -209 0 -6 9 -5 20 1 17 9 23 6 37
-18 11 -17 24 -27 32 -24 10 3 12 0 7 -13 -4 -12 4 -28 28 -51 42 -41 48 -42
40 -9 -10 40 3 29 26 -22 11 -25 22 -44 25 -41 6 6 -24 81 -35 88 -13 8 1 71
14 63 23 -15 36 -11 42 13 7 29 -2 58 -16 49 -6 -4 -6 3 1 18 8 18 7 37 -6 79
-19 66 -37 87 -60 68 -12 -10 -15 -10 -15 3 0 10 -14 20 -37 26 -52 15 -50 15
-62 -21z m19 -178 c0 -5 -4 -10 -10 -10 -5 0 -10 5 -10 10 0 6 5 10 10 10 6 0
10 -4 10 -10z m100 -100 c0 -5 -4 -10 -9 -10 -6 0 -13 5 -16 10 -3 6 1 10 9
10 9 0 16 -4 16 -10z"/>
<path d="M2197 6428 c3 -13 11 -27 17 -33 7 -5 12 -19 13 -30 1 -11 9 -42 18
-68 9 -27 14 -55 11 -62 -3 -8 2 -38 11 -68 14 -49 17 -53 40 -49 22 4 24 8
18 39 -3 19 -9 42 -12 51 -4 15 -3 15 7 2 9 -12 10 -1 8 47 -3 47 -10 69 -26
86 -12 13 -22 29 -22 36 0 14 -14 29 -50 54 -33 23 -39 21 -33 -5z m100 -114
c-9 -9 -28 6 -21 18 4 6 10 6 17 -1 6 -6 8 -13 4 -17z m17 -165 c-3 -5 -10 -7
-15 -3 -5 3 -7 10 -3 15 3 5 10 7 15 3 5 -3 7 -10 3 -15z"/>
<path d="M2350 6400 c0 -11 4 -20 9 -20 5 0 7 9 4 20 -3 11 -7 20 -9 20 -2 0
-4 -9 -4 -20z"/>
<path d="M3138 6383 c7 -3 16 -2 19 1 4 3 -2 6 -13 5 -11 0 -14 -3 -6 -6z"/>
<path d="M2376 6327 c3 -10 9 -15 12 -12 3 3 0 11 -7 18 -10 9 -11 8 -5 -6z"/>
<path d="M3130 6325 c-6 -8 -10 -19 -8 -24 1 -6 8 1 15 14 13 28 11 31 -7 10z"/>
<path d="M3105 6270 c-3 -5 1 -10 10 -10 9 0 13 5 10 10 -3 6 -8 10 -10 10 -2
0 -7 -4 -10 -10z"/>
<path d="M1965 6218 c1 -13 6 -32 11 -42 5 -13 4 -17 -3 -13 -15 10 -23 -27
-23 -110 l0 -71 51 -43 c42 -35 50 -39 45 -21 -11 33 3 27 59 -25 27 -27 44
-41 37 -33 -6 7 -12 21 -12 30 0 20 -32 80 -81 153 -22 31 -35 57 -30 57 5 0
13 -9 16 -20 3 -11 10 -20 14 -20 4 0 17 -17 29 -38 18 -33 27 -39 53 -38 31
1 32 2 35 54 3 48 2 51 -13 37 -10 -11 -13 -25 -9 -45 3 -17 4 -30 2 -30 -2 0
-17 13 -34 28 -24 22 -28 32 -20 46 8 13 13 15 24 5 22 -18 18 8 -6 38 -15 19
-20 21 -20 9 0 -32 -19 -15 -47 44 -22 47 -32 59 -45 54 -10 -3 -18 -1 -18 5
0 6 -4 11 -9 11 -5 0 -8 -10 -6 -22z m30 -198 c10 -16 -16 -43 -28 -31 -11 11
-2 41 12 41 5 0 13 -5 16 -10z"/>
<path d="M2207 6213 c-12 -12 -7 -34 14 -61 l21 -27 -7 40 c-8 43 -17 59 -28
48z"/>
<path d="M2455 6110 c3 -5 8 -10 11 -10 2 0 4 5 4 10 0 6 -5 10 -11 10 -5 0
-7 -4 -4 -10z"/>
<path d="M2500 6106 c0 -8 -9 -18 -21 -21 -17 -6 -20 -14 -17 -48 2 -35 7 -43
26 -45 17 -3 21 -8 17 -21 -4 -13 3 -24 20 -35 14 -9 25 -25 25 -35 0 -18 28
-81 36 -81 2 0 9 20 15 44 7 29 17 46 30 49 10 3 19 11 19 19 0 10 -3 9 -10
-2 -8 -13 -10 -12 -10 4 0 19 -1 19 -13 2 -12 -17 -14 -17 -28 0 -7 9 -14 36
-14 60 0 23 -2 41 -5 39 -3 -2 -14 17 -25 41 -19 42 -45 60 -45 30z m-8 -66
c3 -16 1 -30 -4 -30 -4 0 -8 14 -8 30 0 17 2 30 4 30 2 0 6 -13 8 -30z"/>
<path d="M2277 6053 c-13 -3 -16 -11 -11 -31 12 -53 15 -62 26 -62 5 0 7 7 4
15 -4 10 2 19 17 25 12 5 16 9 10 9 -7 1 -13 12 -13 26 0 25 -1 26 -33 18z"/>
<path d="M2190 5995 c0 -23 59 -135 70 -135 14 0 12 13 -2 29 -11 11 -8 12 12
6 25 -7 25 -7 4 9 -12 9 -34 36 -48 61 -29 48 -36 54 -36 30z"/>
<path d="M2477 5953 c-10 -9 -9 -23 1 -23 5 0 9 7 9 15 0 17 -1 18 -10 8z"/>
<path d="M2153 5923 c4 -3 3 -11 -3 -17 -5 -7 -5 -17 -1 -24 5 -9 12 -9 26 2
16 12 17 16 6 30 -7 9 -18 16 -24 16 -6 0 -7 -3 -4 -7z"/>
<path d="M2629 5868 c0 -2 -2 -20 -4 -41 -4 -33 -2 -37 10 -27 17 14 20 70 5
70 -5 0 -10 -1 -11 -2z"/>
<path d="M2195 5840 c3 -5 10 -10 16 -10 5 0 9 5 9 10 0 6 -7 10 -16 10 -8 0
-12 -4 -9 -10z"/>
<path d="M3610 5795 c0 -2 6 -8 13 -14 10 -8 14 -7 14 2 0 8 -6 14 -14 14 -7
0 -13 -1 -13 -2z"/>
<path d="M1970 5681 c0 -5 7 -12 16 -15 14 -5 15 -4 4 9 -14 17 -20 19 -20 6z"/>
<path d="M1964 5633 c0 -10 30 -36 70 -61 38 -23 82 -54 98 -67 33 -28 58 -34
38 -10 -7 8 -9 15 -5 15 4 0 -5 10 -21 22 -16 13 -30 26 -32 30 -2 5 -9 8 -16
8 -7 0 -21 9 -31 20 -10 11 -25 20 -33 20 -8 0 -21 8 -29 18 -8 9 -12 11 -8 5
3 -7 1 -13 -4 -13 -6 0 -11 7 -11 15 0 8 -4 15 -9 15 -5 0 -8 -8 -7 -17z"/>
<path d="M2622 5545 c2 -38 12 -45 27 -17 6 12 5 23 -4 35 -19 26 -26 21 -23
-18z"/>
<path d="M3334 5552 c-11 -10 -18 -24 -16 -31 3 -8 0 -11 -7 -7 -6 4 -11 1
-11 -8 0 -9 -11 -18 -25 -22 -33 -8 -32 -24 1 -24 14 0 23 -4 19 -10 -3 -5
-17 -10 -30 -10 -13 0 -27 -4 -30 -10 -9 -15 -27 -12 -20 3 4 6 0 4 -8 -5 -8
-10 -16 -15 -19 -12 -3 2 -8 -7 -10 -21 -3 -14 -2 -25 2 -25 4 0 19 -11 35
-25 27 -26 27 -26 75 -10 46 15 48 17 54 64 4 31 12 51 22 55 12 5 15 14 10
39 -4 17 -8 42 -9 55 -2 26 -6 27 -33 4z m-66 -164 c-2 -6 -10 -14 -16 -16 -7
-2 -10 2 -6 12 7 18 28 22 22 4z"/>
<path d="M3636 5514 c-4 -10 -14 -14 -25 -11 -15 4 -18 1 -14 -12 3 -9 11 -22
16 -29 14 -18 -8 -62 -32 -62 -14 0 -18 -5 -14 -20 4 -16 2 -19 -12 -13 -14 5
-16 3 -10 -8 5 -8 1 -7 -12 4 -22 19 -53 23 -53 6 0 -6 -7 -8 -16 -5 -21 8
-95 -14 -88 -26 3 -5 0 -9 -7 -7 -28 3 -39 -1 -39 -17 0 -8 -4 -13 -9 -10 -5
3 -14 -1 -21 -9 -10 -12 -10 -15 1 -15 9 -1 7 -6 -6 -16 -11 -8 -31 -13 -45
-12 -22 3 -25 -1 -24 -29 0 -18 -5 -33 -11 -33 -5 0 3 -9 18 -19 18 -12 25
-21 18 -26 -7 -4 2 -16 24 -31 43 -29 41 -29 48 -4 3 11 1 20 -4 20 -4 0 -5 7
-2 17 4 11 3 14 -5 9 -7 -4 -12 -3 -12 2 0 5 13 9 28 8 19 -1 29 -7 29 -18 1
-10 -2 -18 -8 -18 -5 0 -9 -5 -9 -11 0 -6 7 -8 16 -5 8 3 12 2 9 -4 -3 -6 -1
-10 4 -10 6 0 11 -7 11 -15 0 -8 5 -15 10 -15 6 0 10 -4 10 -10 0 -5 -6 -10
-12 -10 -17 0 -21 -70 -5 -88 9 -12 8 -13 -8 -10 -11 2 -19 10 -17 17 1 7 -2
10 -7 7 -19 -12 -42 6 -35 26 4 12 2 18 -4 14 -5 -3 -17 3 -27 14 -10 11 -14
20 -9 20 5 0 1 5 -10 11 -13 8 -20 8 -26 0 -5 -9 -21 -6 -60 9 -56 22 -72 21
-47 -4 8 -8 17 -13 20 -10 3 3 22 -4 44 -15 21 -11 32 -20 25 -21 -7 0 2 -13
20 -30 18 -16 27 -30 21 -30 -7 0 -13 5 -13 12 0 9 -3 9 -12 0 -15 -15 -48
-16 -48 -1 0 8 -4 8 -15 -1 -8 -6 -20 -8 -26 -4 -8 4 -9 3 -5 -5 14 -22 -22
-22 -73 0 -58 24 -62 34 -10 19 l34 -10 -25 20 c-14 11 -38 22 -53 26 -26 5
-46 28 -35 39 2 3 19 1 36 -4 49 -14 38 -3 -24 24 -41 18 -73 25 -118 24 l-61
-1 63 -15 c34 -9 62 -20 62 -26 0 -5 -11 -6 -25 -3 -67 17 -141 15 -175 -4
-86 -47 -118 -60 -155 -60 l-40 0 25 -20 c36 -28 82 -25 143 10 60 34 99 37
155 15 35 -14 38 -18 34 -48 -5 -39 -46 -76 -84 -77 -15 0 -30 -5 -33 -11 -5
-7 -11 -5 -18 4 -7 8 -30 17 -52 20 -22 4 -70 15 -107 26 l-66 19 4 -34 c2
-19 0 -34 -5 -34 -5 0 -11 -10 -13 -22 -2 -16 -9 -22 -20 -20 -10 2 -18 -2
-18 -9 0 -6 -6 -9 -14 -6 -26 10 -129 -24 -152 -50 -27 -31 -38 -130 -28 -236
6 -62 5 -70 -7 -60 -8 6 -26 14 -39 16 -14 2 -38 9 -53 15 -40 17 -42 16 -61
-26 -21 -45 -65 -103 -66 -84 0 7 11 35 25 62 31 62 32 80 2 80 -13 0 -42 9
-65 20 -22 11 -53 20 -68 20 -26 0 -26 -1 -20 -49 8 -62 9 -318 1 -331 -3 -6
-3 -10 2 -10 4 0 7 -95 5 -212 -2 -162 0 -214 10 -221 10 -7 10 -10 1 -14 -17
-6 -17 -60 0 -66 9 -3 9 -7 -1 -20 -12 -14 -9 -17 25 -26 21 -6 48 -11 59 -11
26 0 43 -48 22 -62 -9 -6 -7 -8 7 -6 11 2 20 -3 20 -10 0 -8 24 -26 53 -42 29
-15 48 -31 43 -35 -6 -3 -11 -15 -11 -27 0 -16 -3 -18 -14 -9 -8 6 -18 11 -22
9 -5 -1 -51 19 -101 45 l-93 46 0 -38 c0 -24 7 -44 18 -55 18 -15 20 -15 37 4
10 11 23 20 30 20 16 0 47 -35 38 -43 -3 -4 3 -17 13 -30 50 -56 56 -74 39
-123 -8 -24 -15 -69 -15 -99 0 -31 -6 -64 -12 -75 -11 -17 -10 -22 2 -31 23
-16 187 -3 246 20 28 11 74 22 100 24 l50 5 48 -57 c51 -60 107 -173 68 -138
-25 23 -35 21 -26 -5 7 -23 6 -23 -15 -4 -25 23 -40 14 -20 -11 9 -11 2 -8
-20 7 -30 20 -34 21 -28 6 7 -18 6 -18 -19 -1 -25 16 -26 16 -19 -5 7 -22 7
-22 -21 -3 -26 17 -28 17 -21 0 8 -20 0 -21 -33 -2 -33 19 -46 19 -30 0 8 -9
9 -15 2 -15 -6 0 -14 5 -17 10 -10 16 -28 12 -21 -5 6 -17 -9 -21 -19 -5 -10
16 -28 12 -22 -5 5 -11 1 -12 -20 -4 -21 8 -24 7 -19 -6 3 -8 1 -15 -5 -15
-15 0 -22 29 -10 44 6 7 8 16 4 19 -3 4 2 9 11 13 22 8 20 21 -4 27 -15 4 -19
0 -17 -17 1 -12 -3 -20 -10 -18 -7 1 -13 -5 -13 -13 0 -8 -5 -15 -11 -15 -6 0
-8 -9 -4 -22 7 -21 6 -22 -9 -7 -15 14 -15 19 -1 58 22 63 20 79 -5 56 -11
-10 -20 -24 -20 -32 0 -7 -5 -13 -11 -13 -5 0 -7 4 -4 10 3 5 2 17 -3 25 -7
13 -11 11 -22 -12 -13 -27 -16 -34 -19 -50 -4 -19 -42 36 -47 69 -8 50 -24 49
-24 -1 0 -23 11 -60 28 -93 31 -58 33 -86 8 -100 -30 -17 -20 -78 19 -122 19
-21 35 -42 35 -47 0 -16 -17 -10 -41 15 -23 24 -49 25 -49 2 0 -37 113 -89
138 -64 6 6 12 -1 16 -19 4 -16 16 -34 27 -41 22 -14 59 -7 59 11 1 8 5 7 13
-3 17 -20 53 -40 73 -40 12 0 15 7 12 25 -3 14 -4 25 -3 25 1 0 14 -18 29 -40
36 -54 57 -53 52 2 -2 24 -4 80 -5 126 -1 45 -4 82 -8 82 -27 -1 -36 -21 -35
-82 l2 -63 -28 55 c-19 39 -34 56 -50 58 -14 2 -20 8 -15 15 4 6 6 26 5 44 -2
26 1 33 15 33 10 1 34 7 53 13 19 7 46 10 60 6 23 -6 22 -7 -7 -8 -35 -1 -47
-21 -13 -21 34 0 22 -20 -12 -21 -28 0 -30 -2 -13 -9 11 -5 38 -9 60 -9 47 -1
86 -20 45 -22 -23 0 -23 -1 -5 -9 11 -5 33 -9 49 -9 28 -1 29 -2 10 -16 -18
-13 -15 -14 29 -15 29 0 54 -6 63 -15 13 -13 13 -15 1 -15 -8 0 -19 -12 -25
-27 -15 -37 -9 -177 7 -197 10 -12 10 -22 0 -51 -7 -19 -17 -35 -22 -35 -4 0
-6 -4 -3 -8 3 -5 -20 -34 -50 -66 -30 -32 -54 -62 -54 -67 0 -5 -13 -9 -28 -9
-15 0 -32 -4 -38 -9 -5 -5 -33 -14 -62 -20 -60 -12 -191 1 -204 22 -6 9 -10 9
-16 0 -13 -20 -50 -11 -56 13 -3 12 -27 36 -53 53 -26 17 -55 44 -65 59 -16
25 -18 25 -18 6 0 -12 7 -24 15 -28 19 -7 19 -35 0 -42 -8 -4 -15 -11 -15 -17
0 -5 8 -3 18 6 31 28 45 21 39 -18 -3 -19 -1 -37 5 -41 5 -3 8 -15 5 -25 -3
-11 -1 -19 5 -19 5 0 12 9 15 20 5 19 23 29 23 13 -1 -16 -28 -43 -44 -43 -9
0 -16 -4 -16 -10 0 -5 7 -10 15 -10 9 0 20 -11 25 -25 8 -21 16 -25 54 -25 24
0 59 -3 77 -6 24 -4 30 -3 20 4 -8 6 -10 15 -5 23 7 12 5 12 -9 1 -14 -12 -20
-11 -39 2 -12 9 -30 16 -40 16 -26 0 -31 18 -8 30 15 8 20 8 18 -1 -2 -9 33
-13 139 -13 132 -1 143 1 172 22 16 12 37 22 44 22 8 0 20 7 27 15 7 8 15 13
19 11 11 -6 67 60 63 74 -3 9 1 11 11 7 17 -6 33 25 23 42 -3 5 1 12 9 15 9 3
32 40 52 81 36 76 46 87 57 60 6 -16 46 -21 46 -6 0 4 -10 24 -23 43 -27 39
-50 98 -38 98 5 0 8 10 7 23 -1 18 5 23 32 25 33 3 45 22 15 22 -11 1 -7 6 12
14 34 16 24 23 -40 29 -38 3 -38 4 9 5 39 2 47 5 42 18 -3 9 -6 19 -6 24 0 5
-15 11 -32 13 -18 2 1 5 42 5 41 1 104 7 139 12 74 13 87 7 40 -15 l-34 -15
43 5 c46 6 54 0 20 -16 -17 -7 -7 -8 37 -3 33 3 72 6 87 5 15 0 30 4 33 9 9
15 25 12 19 -3 -3 -9 3 -13 18 -13 18 1 24 -5 26 -27 2 -15 7 -25 12 -22 14 9
23 -16 11 -28 -14 -14 -15 -50 -1 -42 14 9 12 -9 -2 -24 -7 -7 -8 -11 -3 -9 6
2 10 1 11 -2 0 -3 6 -15 13 -28 10 -18 9 -22 -3 -22 -23 0 -56 63 -56 108 0
43 -21 75 -45 66 -22 -9 -26 -34 -11 -62 8 -15 17 -40 21 -56 7 -35 85 -112
99 -99 3 4 6 -6 6 -20 0 -18 5 -27 16 -27 12 0 15 6 10 23 -13 41 -11 52 7 51
9 -1 17 5 17 13 0 11 7 14 21 10 41 -11 146 60 135 90 -3 8 -6 17 -6 19 0 12
-21 1 -50 -26 -18 -16 -35 -30 -39 -30 -4 0 1 33 11 72 26 103 18 115 -60 80
-45 -20 -97 -23 -97 -5 0 6 19 25 42 42 24 18 56 55 74 86 17 30 34 55 37 55
4 0 36 -9 72 -21 40 -12 77 -18 97 -14 24 4 37 1 53 -15 11 -11 29 -20 40 -20
18 0 20 7 20 87 0 68 -3 84 -12 75 -7 -7 -15 -12 -20 -12 -13 0 -48 43 -48 60
0 19 56 63 70 55 6 -4 10 25 10 75 0 59 -3 79 -12 74 -6 -4 -45 -11 -87 -15
-111 -12 -115 -13 -123 -29 -5 -12 -7 -12 -7 3 -1 13 -10 17 -41 17 -30 0 -40
4 -40 16 0 13 -3 14 -14 5 -12 -10 -13 -8 -9 11 4 13 12 32 20 43 26 38 12 39
-21 1 -26 -31 -38 -37 -52 -31 -11 5 -22 9 -25 9 -3 1 -13 9 -23 19 -10 9 -24
17 -31 17 -18 0 -35 31 -35 63 0 66 134 477 155 477 8 0 16 -6 18 -12 3 -8 6
-6 6 5 1 11 9 17 23 17 20 0 20 -1 4 -19 -16 -18 -16 -20 5 -34 12 -9 27 -26
33 -38 17 -34 70 -34 93 0 10 14 18 28 18 31 1 16 19 29 45 35 l30 7 -21 17
c-23 19 -18 44 6 34 10 -3 15 1 15 12 0 10 -5 15 -13 12 -10 -4 -13 2 -9 20 3
18 1 24 -7 19 -6 -4 -11 -13 -11 -21 0 -8 -8 -20 -18 -27 -10 -7 -21 -21 -25
-31 -7 -19 -32 -19 -32 0 0 6 -3 15 -7 18 -4 4 3 15 14 25 l22 18 -34 8 c-19
4 -59 7 -88 5 l-53 -2 6 48 c3 26 9 60 11 75 l5 27 45 -42 c24 -23 44 -47 44
-54 0 -18 6 -16 35 12 28 29 32 50 11 58 -9 4 -12 0 -9 -12 3 -12 -2 -20 -17
-24 -16 -4 -23 1 -31 19 -5 14 -9 27 -9 28 0 2 16 3 36 4 46 2 49 5 36 39 -6
15 -16 50 -24 77 -19 69 -76 121 -91 83 -7 -18 12 -47 20 -29 7 19 31 14 44
-9 9 -17 8 -23 -2 -30 -20 -12 -29 -11 -35 5 -5 12 -8 12 -24 -2 -17 -14 -17
-17 -4 -27 18 -13 15 -56 -3 -63 -14 -4 -14 -3 -33 78 -7 30 -15 61 -18 69 -4
10 1 12 19 7 13 -3 18 -3 11 0 -6 3 -10 9 -7 14 3 4 -2 7 -11 6 -11 -1 -21 13
-30 38 -14 39 -14 39 5 20 10 -10 17 -22 14 -26 -2 -5 11 -8 29 -9 18 0 45 -2
61 -3 15 -1 27 2 27 6 0 4 -5 8 -11 8 -6 0 -9 7 -5 15 3 8 2 15 -2 15 -14 1
-103 90 -90 91 7 0 3 5 -10 12 -16 7 -26 8 -30 0 -19 -28 -91 15 -92 55 0 7
-7 15 -15 18 -24 10 -17 33 13 40 15 4 56 20 91 35 35 16 66 27 68 25 2 -2 19
-28 38 -57 32 -52 33 -54 14 -64 -18 -10 -18 -12 -3 -33 11 -16 22 -21 35 -17
16 5 25 -5 51 -62 18 -37 45 -115 59 -173 l28 -105 0 81 c1 90 -20 165 -83
294 -31 64 -32 71 -12 48 18 -20 26 -23 30 -13 2 7 -2 19 -10 25 -16 14 -19
35 -4 25 20 -12 9 31 -17 70 l-26 40 25 -22 c33 -31 42 -29 24 6 -13 24 -13
31 -1 47 13 18 14 18 32 1 11 -9 25 -17 31 -17 15 0 -30 92 -64 133 -42 51
-25 53 23 4 25 -26 61 -60 79 -73 18 -14 36 -34 39 -45 4 -10 10 -19 14 -19 9
0 6 808 -3 838 -9 26 -21 29 -30 6z m-172 -199 c3 -8 1 -15 -4 -15 -6 0 -10 7
-10 15 0 8 2 15 4 15 2 0 6 -7 10 -15z m15 -74 c-6 -16 -25 1 -34 28 l-7 24
22 -21 c12 -11 21 -25 19 -31z m-42 -3 c5 -7 6 -24 2 -38 -4 -14 -7 -18 -8
-10 -1 10 -4 11 -12 3 -18 -18 -49 -3 -49 24 0 13 4 21 10 18 6 -3 10 -1 10 4
0 15 35 14 47 -1z m-97 -28 c0 -5 -4 -10 -10 -10 -5 0 -10 5 -10 10 0 6 5 10
10 10 6 0 10 -4 10 -10z m-65 -20 c10 -11 13 -20 7 -20 -7 0 -12 5 -12 10 0 6
-7 10 -15 10 -8 0 -15 5 -15 10 0 16 15 12 35 -10z m345 -74 c0 -3 -4 -8 -10
-11 -5 -3 -10 -1 -10 4 0 6 5 11 10 11 6 0 10 -2 10 -4z m-140 -87 c0 -14 -5
-19 -17 -17 -26 5 -29 38 -4 38 15 0 21 -6 21 -21z m38 -77 c2 -7 -3 -12 -12
-12 -9 0 -16 7 -16 16 0 17 22 14 28 -4z m-197 -12 c13 -10 18 -19 12 -20 -20
0 -15 -15 14 -44 15 -15 29 -22 33 -17 6 11 122 -101 119 -115 -1 -5 1 -17 6
-27 16 -37 -8 -30 -51 17 -25 26 -43 54 -40 61 3 9 0 12 -8 9 -7 -3 -32 13
-55 36 -42 42 -63 46 -54 10 3 -11 2 -27 -1 -36 -5 -14 -9 -14 -23 -3 -12 10
-14 10 -9 2 11 -20 -26 -15 -51 6 -28 24 -29 33 -3 56 11 10 20 27 20 38 0 13
5 17 14 14 11 -4 13 -1 9 10 -5 12 -2 15 10 10 9 -3 17 -2 17 3 0 16 16 12 41
-10z m-282 -32 c63 -39 64 -45 11 -47 -52 -1 -54 0 -64 42 -8 33 4 35 53 5z
m340 -11 c12 -15 12 -17 -3 -11 -9 3 -16 13 -16 22 0 8 1 13 3 11 1 -2 9 -12
16 -22z m-187 -29 c-6 -6 -15 -8 -19 -4 -4 4 -1 11 7 16 19 12 27 3 12 -12z
m-512 -60 c0 -12 -18 -10 -25 3 -4 6 -13 8 -21 5 -14 -5 -19 5 -8 17 8 7 54
-13 54 -25z m215 -7 c107 -13 198 -13 190 -2 -3 5 -1 12 5 16 6 3 13 -1 16 -9
5 -14 9 -13 30 1 24 15 26 15 59 -18 18 -19 31 -37 28 -41 -2 -5 3 -8 11 -8 9
0 16 -8 16 -17 -1 -15 -5 -13 -24 9 -23 26 -25 26 -40 9 -16 -17 -16 -19 -1
-25 9 -3 21 -4 26 0 5 3 15 2 22 -3 6 -4 19 -8 27 -8 8 0 14 -6 12 -14 -1 -7
1 -18 5 -25 4 -7 0 -3 -9 7 -10 11 -18 16 -18 13 0 -3 1 -7 2 -8 2 -2 -7 -18
-20 -35 -23 -32 -23 -33 -3 -33 11 0 23 5 26 10 4 6 16 8 27 4 14 -4 18 -2 14
5 -8 13 29 10 41 -4 5 -4 2 -5 -4 -1 -7 4 -13 3 -13 -3 0 -6 -11 -13 -25 -17
-14 -3 -25 -10 -25 -14 0 -4 -8 -10 -17 -13 -10 -3 -35 -12 -56 -21 -37 -16
-38 -16 -47 6 -5 13 -9 20 -9 16 -1 -5 -19 9 -40 30 -22 20 -58 54 -81 76 -32
29 -39 40 -29 47 10 6 7 8 -8 6 -12 0 -20 -5 -17 -9 3 -4 -21 6 -52 22 -31 17
-60 28 -64 25 -5 -3 -10 0 -12 6 -3 10 -62 19 -125 19 -13 0 -23 5 -23 10 0
11 47 8 205 -9z m140 9 c3 -5 1 -10 -4 -10 -6 0 -11 5 -11 10 0 6 2 10 4 10 3
0 8 -4 11 -10z m-374 -50 c8 0 23 -6 33 -13 16 -12 16 -19 6 -77 -6 -36 -21
-89 -32 -117 -18 -45 -26 -54 -53 -59 -61 -11 -89 -2 -96 31 -13 62 -10 180 6
203 17 24 69 43 100 36 11 -2 27 -4 36 -4z m-179 -37 c13 -11 16 -26 13 -57
-3 -22 -7 -71 -11 -108 l-6 -67 -36 -11 c-57 -15 -90 -12 -102 9 -14 27 -13
174 2 207 23 50 98 65 140 27z m357 11 c21 -15 23 -23 19 -73 -6 -82 -34 -133
-82 -149 -30 -10 -41 -10 -47 -1 -13 21 -21 117 -13 165 6 39 11 48 38 60 41
18 57 17 85 -2z m126 -64 c79 -38 78 -100 -1 -138 -34 -16 -37 -16 -49 1 -18
25 -28 113 -15 137 13 25 14 25 65 0z m-624 -323 c-13 -13 -26 -3 -16 12 3 6
11 8 17 5 6 -4 6 -10 -1 -17z m-251 -1 c0 -3 -4 -8 -10 -11 -5 -3 -10 -1 -10
4 0 6 5 11 10 11 6 0 10 -2 10 -4z m-70 -27 c0 -11 -7 -19 -15 -19 -8 0 -15 7
-15 16 0 8 -4 12 -10 9 -5 -3 -10 -2 -10 3 0 5 11 10 25 10 18 0 25 -6 25 -19z
m370 -9 c0 -5 -4 -10 -9 -10 -6 0 -13 5 -16 10 -3 6 1 10 9 10 9 0 16 -4 16
-10z m25 0 c3 -5 1 -10 -4 -10 -6 0 -11 5 -11 10 0 6 2 10 4 10 3 0 8 -4 11
-10z m-215 -10 c0 -5 -2 -10 -4 -10 -3 0 -8 5 -11 10 -3 6 -1 10 4 10 6 0 11
-4 11 -10z m-200 -61 c0 -5 -7 -9 -15 -9 -15 0 -20 12 -9 23 8 8 24 -1 24 -14z
m150 -19 c0 -5 -4 -10 -10 -10 -5 0 -10 5 -10 10 0 6 5 10 10 10 6 0 10 -4 10
-10z m-167 -32 c-9 -15 -23 -8 -23 12 0 17 2 19 14 8 8 -7 12 -16 9 -20z m127
22 c0 -5 -4 -10 -10 -10 -5 0 -10 5 -10 10 0 6 5 10 10 10 6 0 10 -4 10 -10z
m100 6 c0 -3 -4 -8 -10 -11 -5 -3 -10 -1 -10 4 0 6 5 11 10 11 6 0 10 -2 10
-4z m-93 -81 c6 -16 -22 -44 -44 -45 -7 0 -13 11 -13 24 0 34 45 50 57 21z
m303 -5 c0 -5 -4 -10 -10 -10 -5 0 -10 5 -10 10 0 6 5 10 10 10 6 0 10 -4 10
-10z m1022 -22 c-7 -7 -12 -8 -12 -2 0 6 3 14 7 17 3 4 9 5 12 2 2 -3 -1 -11
-7 -17z m-995 -100 c-4 -51 -9 -103 -13 -115 -6 -22 -74 -73 -96 -73 -10 0
-10 2 -1 8 6 4 13 33 14 65 1 32 6 60 10 63 4 2 10 22 14 44 7 40 47 100 67
100 7 0 9 -30 5 -92z m-387 43 c0 -21 -6 -32 -20 -36 -25 -8 -41 1 -35 20 3 8
7 22 10 30 2 8 14 15 25 15 15 0 20 -7 20 -29z m140 24 c0 -10 -24 -55 -29
-55 -3 0 -16 -3 -28 -6 -14 -4 -23 -2 -23 5 0 6 7 11 15 11 8 0 15 7 15 15 0
8 7 15 15 15 8 0 15 5 15 10 0 6 5 10 10 10 6 0 10 -2 10 -5z m50 -13 c0 -5
-6 -16 -13 -27 -16 -20 -33 -5 -23 20 6 16 36 21 36 7z m980 -37 c-7 -9 -15
-13 -19 -10 -3 3 1 10 9 15 21 14 24 12 10 -5z m-60 -5 c8 -5 11 -12 7 -17 -5
-4 -11 -3 -15 3 -4 6 -14 14 -22 17 -13 5 -13 5 0 6 8 0 22 -3 30 -9z m-334
-22 c5 -8 0 -9 -14 -6 -15 4 -25 0 -32 -10 -11 -19 -13 -12 -4 12 7 19 40 21
50 4z m244 -13 c0 -2 -7 -2 -15 1 -8 4 -15 1 -15 -5 0 -6 8 -11 18 -12 12 0
13 -2 3 -6 -8 -3 -20 2 -27 12 -7 10 -20 15 -29 12 -8 -4 -15 -4 -15 -1 0 11
46 21 63 12 9 -5 17 -11 17 -13z m-310 5 c0 -5 -10 -10 -22 -10 -17 0 -19 -3
-10 -12 7 -7 12 -21 11 -32 0 -20 -1 -20 -9 2 -6 13 -18 22 -30 22 -30 0 -15
18 23 29 18 5 33 10 35 10 1 1 2 -3 2 -9z m-730 -18 c0 -13 -12 -22 -22 -16
-10 6 -1 24 13 24 5 0 9 -4 9 -8z m957 -26 c12 -13 19 -27 16 -30 -4 -3 1 -6
10 -6 9 0 18 -4 22 -9 3 -6 -7 -9 -22 -7 -16 1 -27 7 -26 14 2 6 -6 10 -17 9
-23 -1 -27 -17 -5 -17 8 0 15 -5 15 -11 0 -6 -7 -8 -15 -5 -8 3 -22 9 -30 12
-8 3 -15 1 -15 -5 0 -6 9 -11 20 -11 11 0 20 -5 20 -10 0 -6 -11 -8 -26 -4
-24 6 -25 5 -13 -14 7 -12 10 -25 6 -29 -5 -4 -12 -1 -17 7 -8 12 -10 9 -10
-10 -1 -21 -2 -23 -13 -10 -14 18 -37 24 -37 10 0 -5 -4 -10 -10 -10 -5 0 -10
8 -10 17 0 27 -20 1 -22 -30 -1 -15 -8 -27 -16 -27 -7 0 -10 5 -6 12 4 7 3 8
-4 4 -17 -10 -15 -26 3 -26 8 0 15 -4 15 -9 0 -5 -8 -7 -19 -4 -11 3 -28 -4
-41 -19 -13 -12 -19 -17 -15 -9 5 9 3 12 -6 9 -8 -3 -13 -14 -11 -24 2 -16 1
-17 -8 -4 -8 13 -11 13 -19 1 -5 -8 -16 -11 -25 -8 -21 8 -56 -13 -57 -33 0
-10 -2 -11 -6 -2 -2 6 -9 9 -15 6 -6 -4 -14 -1 -18 6 -5 8 -19 15 -32 17 -20
2 -21 1 -6 -8 10 -5 23 -19 29 -31 8 -16 8 -19 -1 -13 -9 5 -10 1 -5 -14 4
-12 2 -21 -4 -21 -11 0 -15 13 -12 38 1 8 -5 7 -18 -4 -19 -16 -19 -18 -3 -30
15 -12 14 -13 -10 -14 -32 0 -44 15 -28 35 7 9 8 15 0 20 -5 3 -10 -1 -10 -9
0 -9 -5 -16 -10 -16 -7 0 -7 -6 0 -20 12 -23 8 -25 -23 -9 -12 7 -19 8 -15 4
4 -5 3 -14 -4 -22 -10 -12 -7 -13 17 -7 18 4 26 3 22 -3 -4 -6 -16 -13 -27
-16 -20 -5 -24 2 -20 37 1 10 -3 15 -8 12 -6 -3 -13 0 -16 6 -3 7 -3 3 -1 -8
4 -14 0 -24 -10 -28 -9 -3 -13 -2 -10 4 4 6 -7 10 -24 10 -21 0 -31 -5 -31
-15 0 -14 -3 -13 -24 2 -13 10 -22 21 -20 25 2 4 0 9 -6 13 -16 10 -12 25 6
25 10 0 14 6 10 15 -3 9 0 15 9 15 10 0 12 7 5 29 -9 32 -5 40 29 59 13 8 39
22 58 33 19 11 65 40 103 65 38 25 75 42 81 39 7 -5 7 -11 1 -17 -6 -6 -8 -17
-5 -24 3 -9 -2 -14 -17 -14 -14 0 -19 -4 -14 -12 5 -8 2 -9 -9 -5 -10 4 -16 2
-14 -6 1 -7 -4 -11 -10 -9 -7 1 -13 -4 -13 -12 0 -8 -7 -17 -16 -20 -26 -10
-30 -6 -10 9 11 8 16 15 10 15 -5 0 -17 -6 -26 -14 -13 -10 -15 -15 -6 -24 7
-7 8 -12 2 -12 -6 0 -15 5 -21 11 -9 9 -10 6 -6 -11 4 -16 3 -21 -5 -16 -7 4
-12 2 -12 -4 0 -23 141 21 259 81 41 22 81 39 88 39 7 0 13 3 13 8 0 4 9 12
20 17 10 6 46 25 80 43 33 18 60 27 60 21 0 -8 11 -9 32 -5 41 8 59 25 25 23
-14 -1 -23 -5 -20 -9 2 -5 -1 -8 -6 -8 -6 0 -11 6 -11 14 0 12 10 19 41 25 3
0 15 -10 26 -23z m-813 -36 c4 -17 -1 -33 -14 -49 -23 -27 -27 -26 -40 18 -5
20 -5 31 1 31 6 0 7 4 4 10 -3 6 1 7 9 4 11 -4 16 0 16 12 0 24 17 6 24 -26z
m486 25 c0 -8 -2 -15 -4 -15 -2 0 -6 7 -10 15 -3 8 -1 15 4 15 6 0 10 -7 10
-15z m-40 -30 c0 -7 -7 -16 -16 -19 -8 -3 -12 -11 -8 -17 3 -6 -5 -3 -20 6
-30 20 -24 39 10 31 19 -5 22 -3 17 11 -4 11 -3 14 5 9 7 -4 12 -13 12 -21z
m-582 -14 c4 -23 -11 -41 -35 -41 -14 0 -17 28 -7 55 9 23 38 14 42 -14z m985
-15 c4 -10 1 -13 -9 -9 -10 4 -13 0 -8 -13 5 -15 4 -16 -4 -4 -8 10 -8 18 0
27 13 16 15 16 21 -1z m-33 -29 c0 -7 -12 -13 -26 -13 -24 -2 -25 -1 -7 16 19
18 33 17 33 -3z m-808 -19 c-7 -7 -12 -8 -12 -2 0 14 12 26 19 19 2 -3 -1 -11
-7 -17z m-78 -37 c-2 -3 10 -20 28 -38 l33 -34 -25 -19 c-31 -25 -36 -24 -67
0 -21 16 -22 20 -8 20 15 0 14 5 -9 34 -32 42 -35 67 -5 40 22 -19 22 -19 11
3 -11 20 -11 21 18 10 16 -6 27 -13 24 -16z m-114 -21 c0 -5 -5 -10 -11 -10
-5 0 -7 5 -4 10 3 6 8 10 11 10 2 0 4 -4 4 -10z m255 -10 c-3 -5 -11 -10 -16
-10 -6 0 -7 5 -4 10 3 6 11 10 16 10 6 0 7 -4 4 -10z m-245 -30 c0 -5 -4 -10
-10 -10 -5 0 -10 5 -10 10 0 6 5 10 10 10 6 0 10 -4 10 -10z m770 -4 c0 -3 -4
-8 -10 -11 -5 -3 -10 -1 -10 4 0 6 5 11 10 11 6 0 10 -2 10 -4z m-510 -15 c0
-5 -7 -12 -16 -15 -24 -9 -28 -7 -14 9 14 17 30 20 30 6z m-63 -51 c-4 -14 0
-20 11 -21 13 0 13 -2 -3 -9 -20 -8 -17 -11 24 -22 11 -3 10 -7 -3 -21 -10 -9
-14 -22 -10 -28 5 -8 3 -9 -5 -5 -7 5 -10 14 -7 21 2 7 -7 22 -20 34 -14 12
-22 27 -18 33 4 7 3 8 -4 4 -7 -4 -12 -2 -12 3 0 6 9 11 21 11 11 0 17 5 14
10 -3 6 -1 10 6 10 6 0 9 -8 6 -20z m380 -32 c-3 -8 -6 -5 -6 6 -1 11 2 17 5
13 3 -3 4 -12 1 -19z m-22 -48 c-3 -5 -12 -10 -18 -10 -7 0 -6 4 3 10 19 12
23 12 15 0z m-220 -20 c-3 -5 -10 -10 -16 -10 -5 0 -9 5 -9 10 0 6 7 10 16 10
8 0 12 -4 9 -10z m300 -80 c-11 -5 -27 -9 -35 -9 -9 0 -8 4 5 9 11 5 27 9 35
9 9 0 8 -4 -5 -9z m-75 -20 c-14 -4 -36 -8 -50 -8 -22 0 -22 1 5 8 17 4 39 8
50 8 16 0 15 -2 -5 -8z m-89 -18 c-5 -2 -38 -6 -72 -10 l-64 -7 -33 -67 c-24
-48 -39 -68 -52 -68 -10 0 -22 5 -25 11 -5 7 -15 5 -31 -6 -22 -14 -24 -14
-24 4 0 12 9 21 25 25 14 4 25 13 25 22 0 12 -4 13 -21 3 -17 -9 -20 -8 -16 3
3 7 11 31 17 53 l11 40 135 0 c74 0 130 -1 125 -3z m-491 -6 c0 -3 -4 -8 -10
-11 -5 -3 -10 -1 -10 4 0 6 5 11 10 11 6 0 10 -2 10 -4z m180 -146 c0 -5 -4
-10 -10 -10 -5 0 -10 5 -10 10 0 6 5 10 10 10 6 0 10 -4 10 -10z m297 -79 c13
-41 22 -82 21 -90 -4 -19 -147 -46 -162 -31 -6 6 -12 38 -14 73 -4 68 2 79 63
111 53 28 67 19 92 -63z m158 60 c47 -18 51 -22 62 -67 6 -27 12 -66 12 -86 1
-37 0 -38 -36 -38 -51 0 -106 29 -114 60 -9 33 -11 135 -2 143 10 11 24 8 78
-12z m232 -78 c8 -20 17 -61 20 -90 l6 -53 -35 0 c-61 0 -95 18 -102 52 -9 46
-7 101 5 136 l11 31 40 -20 c27 -14 44 -32 55 -56z m-599 45 c14 -17 36 -133
29 -152 -8 -20 -73 -31 -102 -18 -17 8 -26 25 -35 64 -17 76 -11 101 25 109
49 11 72 10 83 -3z m765 -38 c10 -16 21 -52 24 -79 6 -54 11 -50 -68 -65 -29
-6 -37 7 -50 88 -12 72 -12 79 5 91 25 19 68 2 89 -35z m93 -4 c-4 -20 -11
-36 -16 -36 -16 0 -22 47 -10 70 17 32 34 10 26 -34z m74 7 c11 -10 20 -23 20
-29 0 -7 7 -14 15 -18 8 -3 15 -12 15 -21 0 -8 5 -15 10 -15 15 0 12 -38 -2
-42 -7 -3 -14 -18 -14 -34 -3 -44 -8 -61 -26 -81 -9 -10 -17 -22 -17 -28 0 -5
-5 -11 -12 -14 -7 -2 -9 1 -5 8 4 6 0 11 -9 11 -9 0 -13 5 -10 10 3 6 1 10 -5
10 -7 0 -10 6 -7 13 2 6 0 20 -5 30 -9 18 -10 18 -24 0 -14 -16 -15 -15 -9 21
3 21 12 52 20 70 7 17 16 39 19 50 6 18 7 18 28 0 21 -19 21 -19 7 4 -8 12
-17 22 -20 22 -3 0 -4 11 -1 25 5 30 6 30 32 8z m450 -58 c0 -8 -4 -15 -10
-15 -5 0 -7 7 -4 15 4 8 8 15 10 15 2 0 4 -7 4 -15z m-100 -40 c0 -8 -4 -15
-10 -15 -5 0 -10 7 -10 15 0 8 5 15 10 15 6 0 10 -7 10 -15z m-69 -26 c-9 -22
-10 -22 -10 -3 -1 11 2 24 6 27 12 12 14 0 4 -24z m157 4 c0 -37 -7 -46 -24
-32 -18 15 -18 39 1 39 8 0 15 5 15 10 0 6 2 10 4 10 2 0 4 -12 4 -27z m-918
-49 c36 -8 90 -20 120 -26 30 -6 58 -14 62 -17 5 -4 10 -44 12 -89 l4 -83 -34
22 c-29 17 -33 18 -28 4 6 -16 5 -16 -26 0 -30 16 -32 16 -27 0 6 -13 1 -12
-23 5 -17 12 -30 29 -30 38 -1 15 -2 15 -11 -1 -5 -9 -7 -23 -2 -30 4 -6 -7
-1 -24 13 -17 14 -29 27 -27 29 5 5 -56 123 -75 145 -15 18 -15 19 14 12 17
-5 59 -14 95 -22z m739 -47 c1 -5 -6 -1 -15 7 -8 9 -12 21 -8 28 5 8 10 6 15
-8 4 -10 8 -23 8 -27z m-362 16 c3 -10 15 -30 25 -45 10 -14 18 -33 18 -41 0
-9 6 -18 13 -20 6 -3 1 -6 -12 -6 -17 -1 -21 -5 -17 -17 4 -10 0 -15 -12 -13
-30 3 -37 -1 -22 -12 15 -11 7 -9 -52 7 -23 7 -23 6 -4 -15 22 -24 13 -27 -26
-7 -25 13 -28 13 -28 -2 0 -14 -2 -14 -9 -3 -5 7 -9 47 -9 87 l0 74 37 5 c20
4 45 10 56 15 30 13 35 12 42 -7z m423 -84 c0 -5 -4 -9 -10 -9 -5 0 -10 7 -10
16 0 8 5 12 10 9 6 -3 10 -10 10 -16z m48 -3 c3 -13 -1 -17 -14 -14 -11 2 -20
11 -22 22 -3 13 1 17 14 14 11 -2 20 -11 22 -22z m-148 -1 c0 -8 -4 -15 -10
-15 -5 0 -10 7 -10 15 0 8 5 15 10 15 6 0 10 -7 10 -15z m180 5 c0 -5 -2 -10
-4 -10 -3 0 -8 5 -11 10 -3 6 -1 10 4 10 6 0 11 -4 11 -10z m10 -50 c0 -5 -2
-10 -4 -10 -3 0 -8 5 -11 10 -3 6 -1 10 4 10 6 0 11 -4 11 -10z m-1490 -90 c0
-5 -4 -10 -10 -10 -5 0 -10 5 -10 10 0 6 5 10 10 10 6 0 10 -4 10 -10z m30
-18 c0 -13 -12 -22 -22 -16 -10 6 -1 24 13 24 5 0 9 -4 9 -8z m90 -36 c0 -11
-19 -15 -25 -6 -3 5 1 10 9 10 9 0 16 -2 16 -4z m60 -16 c0 -5 -5 -10 -11 -10
-5 0 -7 5 -4 10 3 6 8 10 11 10 2 0 4 -4 4 -10z m470 -40 c12 -8 12 -10 -5
-10 -11 0 -27 5 -35 10 -12 8 -12 10 5 10 11 0 27 -5 35 -10z m-570 -24 c0 -3
-5 -17 -10 -31 -9 -23 -13 -25 -25 -15 -19 16 -19 30 0 30 8 0 15 5 15 10 0 6
5 10 10 10 6 0 10 -2 10 -4z m1159 -48 c-6 -18 -12 -44 -15 -58 -9 -44 -21
-43 -27 2 -3 24 -9 51 -12 60 -5 12 0 18 22 21 15 2 31 5 35 6 4 0 2 -14 -3
-31z m-1037 -48 c-1 -54 -8 -61 -20 -19 -5 21 -5 35 1 38 5 2 4 7 -3 11 -7 4
-9 13 -5 20 13 21 27 -6 27 -50z m-125 18 c-3 -8 -6 -5 -6 6 -1 11 2 17 5 13
3 -3 4 -12 1 -19z m483 -120 c0 -9 -24 -11 -32 -2 -3 3 -3 15 0 26 5 20 6 20
19 3 7 -11 13 -22 13 -27z m-596 -387 c3 -5 -1 -14 -9 -21 -13 -10 -15 -9 -15
9 0 21 14 28 24 12z"/>
<path d="M3060 4720 c-13 -8 -12 -10 3 -10 9 0 17 5 17 10 0 12 -1 12 -20 0z"/>
<path d="M2855 3890 c3 -5 8 -10 11 -10 2 0 4 5 4 10 0 6 -5 10 -11 10 -5 0
-7 -4 -4 -10z"/>
<path d="M2880 3859 c0 -5 5 -7 10 -4 6 3 10 8 10 11 0 2 -4 4 -10 4 -5 0 -10
-5 -10 -11z"/>
<path d="M2790 3841 c0 -5 5 -13 10 -16 6 -3 10 -2 10 4 0 5 -4 13 -10 16 -5
3 -10 2 -10 -4z"/>
<path d="M2735 3820 c-3 -5 -1 -10 4 -10 6 0 11 5 11 10 0 6 -2 10 -4 10 -3 0
-8 -4 -11 -10z"/>
<path d="M2685 3790 c-3 -5 1 -10 10 -10 9 0 13 5 10 10 -3 6 -8 10 -10 10 -2
0 -7 -4 -10 -10z"/>
<path d="M2755 3780 c-3 -5 -1 -10 4 -10 6 0 11 5 11 10 0 6 -2 10 -4 10 -3 0
-8 -4 -11 -10z"/>
<path d="M2685 3730 c-3 -5 -16 -10 -28 -11 -21 0 -21 -1 -2 -9 13 -5 24 -3
31 6 6 7 14 11 17 7 4 -3 7 -1 7 5 0 15 -17 16 -25 2z"/>
<path d="M2330 3720 c0 -15 21 -23 32 -12 6 6 2 11 -11 15 -12 3 -21 1 -21 -3z"/>
<path d="M2589 3718 c-6 -21 -5 -38 2 -38 5 0 9 6 9 14 0 8 6 17 13 19 7 3 5
6 -5 6 -10 1 -18 0 -19 -1z"/>
<path d="M2495 3690 c3 -5 8 -10 11 -10 2 0 4 5 4 10 0 6 -5 10 -11 10 -5 0
-7 -4 -4 -10z"/>
<path d="M2415 3660 c-3 -5 -1 -10 4 -10 6 0 11 5 11 10 0 6 -2 10 -4 10 -3 0
-8 -4 -11 -10z"/>
<path d="M2500 3660 c0 -5 5 -10 10 -10 6 0 10 5 10 10 0 6 -4 10 -10 10 -5 0
-10 -4 -10 -10z"/>
<path d="M2340 3599 c0 -5 5 -7 10 -4 6 3 10 8 10 11 0 2 -4 4 -10 4 -5 0 -10
-5 -10 -11z"/>
<path d="M2280 3590 c0 -5 5 -10 10 -10 6 0 10 5 10 10 0 6 -4 10 -10 10 -5 0
-10 -4 -10 -10z"/>
<path d="M2242 3400 c0 -14 2 -19 5 -12 2 6 2 18 0 25 -3 6 -5 1 -5 -13z"/>
<path d="M3536 5487 c3 -10 9 -15 12 -12 3 3 0 11 -7 18 -10 9 -11 8 -5 -6z"/>
<path d="M2963 5385 c0 -8 4 -15 9 -15 4 0 8 4 8 9 0 6 -4 12 -8 15 -5 3 -9
-1 -9 -9z"/>
<path d="M3115 5310 c-3 -5 -2 -10 4 -10 5 0 13 5 16 10 3 6 2 10 -4 10 -5 0
-13 -4 -16 -10z"/>
<path d="M2128 5194 c-15 -14 -8 -37 18 -61 17 -16 30 -21 36 -15 7 7 20 7 39
0 16 -6 38 -8 49 -5 26 7 26 -10 0 -18 -37 -12 -15 -52 40 -73 l25 -10 -25
-10 c-14 -6 -49 -34 -78 -64 -45 -47 -53 -61 -58 -104 -5 -41 -3 -54 12 -69
19 -18 19 -18 24 31 3 28 13 62 23 77 29 45 111 102 173 122 93 28 131 73 52
59 -24 -4 -50 -8 -58 -9 -8 -1 -27 -5 -42 -9 -20 -6 -32 -4 -45 9 -16 17 -16
18 15 13 18 -2 32 -3 32 -2 0 2 -30 33 -67 69 -59 57 -74 67 -113 72 -25 3
-48 2 -52 -3z"/>
<path d="M1950 5120 c0 -11 2 -20 4 -20 2 0 6 9 9 20 3 11 1 20 -4 20 -5 0 -9
-9 -9 -20z"/>
<path d="M2050 5090 c-13 -8 -13 -12 3 -27 15 -15 19 -16 26 -4 9 14 4 41 -8
41 -3 0 -13 -5 -21 -10z"/>
<path d="M2072 5010 c-9 -24 -9 -31 0 -28 21 7 34 36 22 48 -9 9 -14 3 -22
-20z"/>
<path d="M1959 5009 c-11 -11 -18 -27 -15 -36 3 -8 6 -19 6 -24 0 -5 8 -9 18
-9 14 0 15 -2 2 -10 -30 -19 6 -9 39 11 l33 20 -21 20 c-11 11 -21 26 -21 34
0 21 -16 19 -41 -6z m39 -30 c-2 -6 -8 -10 -13 -10 -5 0 -11 4 -13 10 -2 6 4
11 13 11 9 0 15 -5 13 -11z"/>
<path d="M2430 4960 c0 -5 7 -10 15 -10 8 0 15 5 15 10 0 6 -7 10 -15 10 -8 0
-15 -4 -15 -10z"/>
<path d="M2486 4932 c-2 -4 7 -12 20 -19 19 -9 24 -8 24 2 0 7 -7 16 -16 19
-20 8 -22 8 -28 -2z"/>
<path d="M1995 4849 c-4 -6 -13 -8 -21 -5 -18 7 -18 -10 0 -21 7 -4 16 -15 19
-23 4 -9 6 -4 4 10 -1 15 3 24 10 23 7 -2 10 4 7 12 -7 18 -11 19 -19 4z"/>
<path d="M1966 4787 c3 -10 9 -15 12 -12 3 3 0 11 -7 18 -10 9 -11 8 -5 -6z"/>
<path d="M1965 4740 c3 -5 8 -10 11 -10 2 0 4 5 4 10 0 6 -5 10 -11 10 -5 0
-7 -4 -4 -10z"/>
<path d="M2059 4735 c-4 -5 -4 -17 0 -25 7 -17 31 -25 31 -10 0 6 -4 10 -9 10
-5 0 -11 8 -13 18 -2 9 -6 13 -9 7z"/>
<path d="M1960 4710 c0 -5 5 -10 11 -10 5 0 7 5 4 10 -3 6 -8 10 -11 10 -2 0
-4 -4 -4 -10z"/>
<path d="M1961 4664 c0 -11 3 -14 6 -6 3 7 2 16 -1 19 -3 4 -6 -2 -5 -13z"/>
<path d="M3610 4605 c13 -14 25 -23 28 -21 4 5 -35 46 -45 46 -3 0 4 -11 17
-25z"/>
<path d="M3651 4593 c-1 -17 16 -25 25 -12 4 7 3 9 -4 5 -5 -3 -13 0 -15 6 -4
9 -6 10 -6 1z"/>
<path d="M3522 4015 c1 -10 9 -20 16 -21 7 -1 8 0 2 3 -5 2 -8 9 -5 13 3 5 0
12 -6 15 -7 5 -10 1 -7 -10z"/>
<path d="M3570 3944 c0 -8 5 -12 10 -9 6 4 8 11 5 16 -9 14 -15 11 -15 -7z"/>
<path d="M3656 3843 c-9 -10 -7 -81 3 -87 11 -7 21 18 21 54 0 29 -12 45 -24
33z"/>
<path d="M3525 3700 c-4 -12 -16 -31 -27 -42 -19 -19 -21 -41 -3 -38 6 1 9 8
7 16 -2 8 2 13 9 12 7 -2 16 12 21 31 10 37 4 55 -7 21z"/>
<path d="M3575 3680 c-3 -5 -1 -10 4 -10 6 0 11 5 11 10 0 6 -2 10 -4 10 -3 0
-8 -4 -11 -10z"/>
<path d="M3597 3623 c-12 -11 -8 -23 7 -23 7 0 19 7 26 15 10 12 9 15 -7 15
-11 0 -23 -3 -26 -7z"/>
<path d="M2008 3553 c7 -3 16 -2 19 1 4 3 -2 6 -13 5 -11 0 -14 -3 -6 -6z"/>
<path d="M3640 3475 c0 -8 2 -15 4 -15 2 0 6 7 10 15 3 8 1 15 -4 15 -6 0 -10
-7 -10 -15z"/>
<path d="M3631 3434 c0 -11 3 -14 6 -6 3 7 2 16 -1 19 -3 4 -6 -2 -5 -13z"/>
<path d="M3579 3403 c-12 -16 -12 -17 2 -6 9 7 20 9 24 5 5 -4 5 -1 1 6 -9 16
-11 15 -27 -5z"/>
<path d="M1955 2831 c-3 -5 0 -13 6 -17 7 -4 9 -3 5 4 -3 5 0 13 6 15 9 4 10
6 1 6 -6 1 -14 -3 -18 -8z"/>
<path d="M1955 2760 c-4 -12 -5 -24 -2 -27 3 -2 8 5 12 17 4 12 5 24 2 27 -3
2 -8 -5 -12 -17z"/>
<path d="M2892 2672 c-20 -2 -38 -12 -47 -26 -14 -20 -14 -28 0 -67 9 -24 25
-53 35 -64 20 -21 20 -22 -6 -121 -14 -54 -30 -103 -35 -109 -5 -5 -9 -15 -9
-22 0 -20 -71 -162 -108 -215 -17 -26 -32 -51 -32 -57 0 -6 -29 -39 -64 -74
-63 -62 -115 -95 -159 -101 -26 -4 -55 -14 -80 -27 -12 -7 -23 -7 -31 0 -14
12 -323 23 -368 14 -23 -4 -28 -11 -28 -34 0 -21 4 -27 15 -23 8 4 15 12 15
20 0 8 5 14 10 14 6 0 10 -4 10 -10 0 -6 40 -10 99 -10 63 0 101 -4 103 -11 2
-6 33 -11 76 -11 39 0 69 -4 66 -9 -3 -5 14 -9 38 -8 33 0 38 2 23 9 -17 8
-16 9 9 9 21 1 27 -3 23 -14 -10 -24 13 -29 36 -7 30 26 70 35 92 18 15 -10
16 -16 5 -35 -6 -12 -17 -20 -24 -18 -6 3 -18 0 -26 -7 -19 -14 -21 -56 -4
-56 8 0 11 -6 8 -14 -3 -8 3 -17 14 -20 21 -7 37 -35 26 -45 -4 -3 -9 0 -11 7
-3 6 -12 12 -21 11 -11 0 -12 -2 -4 -6 6 -2 9 -10 6 -15 -5 -7 -2 -8 6 -3 10
6 12 2 7 -16 -4 -13 -7 -34 -7 -46 0 -16 -5 -21 -20 -18 -15 3 -20 -2 -20 -19
0 -23 -78 -106 -100 -106 -6 0 -13 -7 -16 -15 -17 -42 -77 10 -73 63 1 15 -2
35 -6 45 -5 11 -3 23 4 30 10 9 17 7 31 -10 14 -18 20 -20 29 -10 11 15 4 57
-11 57 -5 0 -7 4 -4 9 8 12 -28 51 -48 51 -9 0 -16 7 -16 16 0 8 -4 13 -8 10
-5 -3 -15 6 -22 19 -20 37 -37 31 -35 -12 2 -22 10 -43 22 -53 16 -13 18 -20
9 -42 -9 -22 -14 -24 -27 -15 -19 14 -47 63 -30 53 6 -4 11 -1 11 8 0 8 3 22
7 32 4 11 3 15 -4 11 -6 -4 -13 0 -16 8 -4 8 -1 12 6 9 8 -3 12 7 12 28 0 27
-7 37 -35 55 -29 19 -49 23 -115 23 -96 0 -103 -7 -111 -108 -2 -37 -2 -61 2
-54 8 16 29 15 43 -2 17 -20 -13 -43 -34 -26 -14 11 -15 6 -9 -46 9 -75 57
-179 102 -223 33 -30 37 -32 44 -15 5 14 7 12 5 -11 -2 -31 3 -35 110 -82 23
-10 46 -27 52 -38 9 -19 10 -18 10 5 1 14 5 31 10 39 5 7 4 28 -2 47 -13 43
-1 56 23 26 11 -13 25 -20 33 -16 20 7 39 -27 27 -47 -8 -11 -13 -12 -30 -1
-18 11 -20 10 -20 -8 0 -11 9 -28 19 -37 15 -12 18 -24 14 -47 -8 -40 -8 -40
-31 -27 -21 11 -44 -2 -55 -31 -3 -9 -10 -7 -21 7 -17 20 -17 20 -11 -1 3 -13
-1 -26 -10 -34 -11 -9 -14 -23 -10 -44 5 -28 5 -30 -9 -13 -14 18 -14 18 -21
-2 -9 -28 26 -97 48 -93 20 3 24 -24 5 -31 -7 -2 15 -4 49 -4 47 0 73 -5 112
-25 54 -29 61 -25 61 33 0 22 5 29 20 29 12 0 20 -7 20 -16 0 -10 -6 -14 -15
-10 -16 6 -22 -19 -6 -28 4 -3 11 -19 15 -36 3 -17 10 -29 15 -26 12 8 11 188
-1 203 -21 26 3 12 42 -25 27 -26 40 -48 40 -65 0 -31 13 -42 29 -23 12 14 57
10 79 -7 9 -7 12 -2 12 21 0 30 -2 31 -37 29 -32 -2 -39 2 -52 28 -9 17 -19
32 -23 33 -12 5 -10 42 2 42 6 0 10 6 10 14 0 29 23 27 55 -4 19 -18 36 -42
38 -54 3 -16 5 -15 6 7 0 15 6 27 11 27 6 0 10 7 10 16 0 8 5 25 11 36 9 17
13 18 20 7 6 -10 9 -7 10 11 1 14 1 29 0 33 -1 5 3 6 8 3 5 -4 28 13 50 36 29
31 41 38 41 26 0 -11 8 -18 20 -18 22 0 25 7 11 29 -6 9 -4 19 5 28 8 8 14 22
14 31 0 9 7 26 15 36 8 11 15 36 15 55 0 32 1 34 16 20 14 -15 14 -22 0 -75
-8 -32 -14 -60 -12 -61 3 -3 36 34 80 88 43 56 96 233 72 243 -8 2 -7 8 2 17
6 7 12 21 12 31 0 14 -6 16 -29 12 -23 -5 -30 -2 -36 15 -3 11 -4 25 -1 30 4
5 0 12 -6 15 -7 3 0 3 15 -1 58 -12 62 -10 60 22 -1 16 -10 35 -19 42 -15 11
-12 17 31 57 42 40 50 44 73 35 15 -6 30 -16 34 -22 6 -9 8 -9 8 1 0 10 3 10
14 0 8 -7 12 -16 10 -20 -4 -6 52 -58 64 -58 4 0 16 -18 26 -40 10 -22 22 -37
26 -35 4 2 7 -1 8 -8 1 -7 7 -41 12 -77 6 -36 13 -76 14 -89 2 -14 11 -30 20
-36 20 -15 21 -59 1 -75 -9 -7 -13 -21 -10 -31 4 -11 3 -19 -2 -19 -4 0 -9
-30 -9 -66 -2 -88 -22 -177 -54 -246 -15 -31 -25 -59 -22 -62 3 -3 -3 -15 -12
-25 -15 -16 -19 -44 -23 -148 l-4 -128 55 57 c30 32 61 69 68 82 7 14 30 54
51 90 36 63 37 68 26 106 -11 37 -11 43 9 62 17 17 24 19 35 9 12 -9 16 -8 20
8 2 10 1 25 -4 32 -13 21 -11 39 6 39 8 0 19 16 24 38 15 51 14 67 -5 82 -23
20 -14 64 14 68 16 3 22 10 22 28 0 13 -3 23 -7 23 -22 -4 -33 3 -33 19 0 26
11 34 26 21 20 -16 28 11 22 72 -3 27 -1 52 3 55 13 8 11 182 -2 190 -8 4 -7
9 2 15 16 9 16 9 -35 32 -21 10 -36 21 -32 24 13 13 51 10 64 -6 28 -35 1 83
-29 127 -16 23 -29 46 -29 50 0 13 -131 156 -148 163 -9 3 -16 12 -17 20 -2 8
-14 32 -29 53 -14 21 -26 47 -26 57 0 10 -4 21 -10 24 -5 3 -10 19 -10 35 0
45 -9 59 -51 79 -39 19 -50 16 -27 -7 9 -9 9 -12 1 -12 -14 0 -5 -73 9 -78 12
-5 10 -32 -2 -32 -7 0 -7 -6 0 -19 5 -11 10 -33 10 -50 0 -16 5 -33 10 -36 6
-3 10 -19 10 -36 0 -16 4 -29 10 -29 5 0 8 -6 6 -12 -1 -7 -1 -10 1 -5 7 12
23 8 23 -5 0 -20 100 -118 120 -118 13 0 16 -6 12 -25 -3 -20 0 -25 16 -25 25
0 72 -20 72 -31 0 -4 -4 -11 -10 -14 -5 -3 -9 -21 -8 -39 1 -18 -2 -38 -6 -44
-4 -7 -5 -12 -2 -12 3 0 12 12 19 26 l14 26 1 -37 c1 -21 6 -42 10 -49 5 -6
10 -26 10 -44 0 -18 7 -41 14 -49 10 -13 10 -17 1 -20 -7 -3 -13 -15 -13 -28
0 -13 6 -26 13 -28 9 -4 9 -8 -2 -15 -16 -11 -51 -4 -51 11 0 17 -44 77 -57
77 -6 0 -14 6 -16 13 -4 9 -8 8 -16 -3 -5 -8 -13 -11 -18 -7 -4 5 -2 11 4 15
7 4 15 26 19 48 5 33 3 42 -11 47 -9 4 -13 11 -10 17 4 6 -3 9 -16 7 -17 -1
-24 5 -31 31 -5 17 -13 32 -19 32 -6 0 -8 -4 -5 -8 3 -5 -10 -8 -28 -8 -19 1
-33 3 -31 6 9 15 -16 32 -49 33 -25 1 -36 6 -36 16 0 13 -2 14 -9 2 -5 -7 -14
-11 -19 -7 -15 9 -3 38 13 33 6 -3 12 1 12 8 0 8 -8 13 -18 12 -10 -1 -17 -4
-17 -7 2 -25 -4 -30 -29 -24 -16 4 -32 9 -38 13 -5 3 -18 4 -27 3 -10 -2 -23
8 -32 26 -14 27 -14 31 0 36 9 3 31 6 50 6 27 0 34 4 34 20 0 13 7 20 20 20
14 0 20 7 20 21 0 17 -5 20 -24 17 -18 -4 -23 -1 -19 10 5 12 0 11 -26 -2 -17
-9 -31 -24 -31 -35 0 -27 -43 -64 -58 -49 -8 8 -15 8 -26 -1 -11 -9 -18 -6
-34 16 l-20 27 2 -24 c0 -14 7 -29 14 -33 6 -4 12 -14 12 -22 0 -15 41 -9 52
9 4 6 11 7 15 2 4 -5 2 -11 -4 -13 -7 -3 -13 -15 -13 -28 0 -13 -5 -27 -11
-30 -5 -4 -8 -12 -6 -18 2 -7 0 -21 -5 -32 -8 -17 -6 -17 11 3 19 22 20 22 18
3 -1 -11 -7 -23 -14 -25 -7 -3 -13 -12 -13 -21 0 -14 5 -17 40 -19 9 -1 15
-11 15 -26 0 -16 -5 -24 -14 -22 -12 3 -12 0 -2 -12 11 -13 10 -17 -4 -22 -10
-4 -21 -1 -26 7 -8 12 -10 12 -8 -1 5 -47 -3 -90 -21 -110 -11 -13 -20 -29
-20 -37 0 -7 -5 -13 -10 -13 -6 0 -15 -10 -20 -22 l-9 -23 0 23 c-1 12 -5 22
-10 22 -5 0 -8 6 -8 13 1 23 -25 75 -41 82 -10 3 -21 0 -28 -9 -14 -20 -24
-20 -24 -1 0 8 6 14 13 12 7 -1 13 11 15 31 2 23 -1 32 -11 32 -14 0 -32 27
-28 43 0 4 -12 15 -29 25 -20 11 -30 25 -30 41 0 17 -4 22 -16 17 -11 -4 -18
1 -21 14 -3 11 -9 17 -14 14 -5 -3 -9 4 -9 15 0 12 6 21 13 21 8 0 8 3 1 8
-15 10 -25 42 -13 42 6 0 8 4 5 8 -3 5 1 19 8 33 7 13 10 31 8 38 -2 7 2 17 9
22 11 7 9 10 -8 15 -13 4 -23 11 -23 16 0 6 6 8 14 5 10 -4 12 0 8 15 -6 23
15 40 39 33 9 -3 16 0 16 8 0 12 24 67 68 157 7 14 18 49 26 78 7 28 16 52 20
52 4 0 7 15 7 33 0 17 5 44 11 58 5 15 7 30 4 33 -4 3 15 3 40 0 43 -6 47 -5
47 13 0 13 -10 25 -28 32 -20 9 -28 19 -30 41 -1 16 1 31 6 34 12 7 7 50 -9
72 -10 13 -23 18 -47 16z m16 -54 c6 -7 8 -25 5 -41 -4 -22 -8 -25 -19 -16
-15 13 -19 69 -5 69 5 0 13 -6 19 -12z m487 -538 c3 -5 1 -10 -4 -10 -6 0 -11
5 -11 10 0 6 2 10 4 10 3 0 8 -4 11 -10z m-757 -241 c-2 -6 -8 -10 -13 -10 -5
0 -11 4 -13 10 -2 6 4 11 13 11 9 0 15 -5 13 -11z m30 -26 c9 -9 17 -30 17
-47 0 -20 5 -30 13 -28 9 1 8 -5 -4 -23 -27 -41 -72 -27 -74 23 0 12 0 31 -1
43 0 19 17 49 28 49 2 0 12 -8 21 -17z m472 -14 c0 -5 -7 -9 -15 -9 -9 0 -12
6 -9 15 6 15 24 11 24 -6z m57 -15 c0 -8 -3 -12 -5 -9 -3 3 -11 0 -18 -6 -14
-11 -34 -4 -34 12 0 5 7 9 16 9 8 0 13 4 10 9 -4 5 2 7 12 4 10 -2 19 -11 19
-19z m-693 -7 c8 -14 8 -20 -4 -27 -16 -10 -40 12 -40 38 0 18 30 11 44 -11z
m646 -29 c0 -6 -7 -5 -15 2 -8 7 -15 17 -15 22 0 6 7 5 15 -2 8 -7 15 -17 15
-22z m-510 -79 c0 -5 -7 -9 -15 -9 -9 0 -12 6 -9 15 6 15 24 11 24 -6z m-44
-16 c-10 -10 -19 5 -10 18 6 11 8 11 12 0 2 -7 1 -15 -2 -18z m211 1 c7 -15
10 -31 7 -35 -3 -5 0 -9 5 -9 6 0 11 -10 10 -22 0 -22 -1 -22 -9 -3 -4 12 -15
27 -24 34 -16 13 -23 61 -8 61 4 0 12 -12 19 -26z m-63 3 c-3 -8 -11 -14 -18
-14 -8 0 -12 6 -9 14 3 7 11 13 19 13 7 0 11 -6 8 -13z m-82 -26 c14 -12 21
-71 9 -71 -6 0 -11 -6 -11 -14 0 -23 -19 -29 -36 -12 -9 9 -20 14 -25 11 -4
-3 -11 7 -15 22 -4 15 -11 34 -17 41 -6 8 -6 12 2 12 7 0 19 7 28 15 14 15 47
13 65 -4z m-557 -7 c8 3 15 1 15 -5 0 -6 5 -7 10 -4 6 3 10 0 10 -7 0 -9 3 -9
10 2 6 9 10 10 10 3 0 -6 -10 -19 -22 -27 -13 -10 -17 -16 -9 -16 8 0 11 -3 7
-7 -7 -8 -12 -9 -38 -12 -9 -1 -9 -4 0 -13 17 -17 15 -38 -3 -38 -8 0 -15 -5
-15 -11 0 -5 -4 -7 -10 -4 -14 9 -12 42 3 49 6 3 0 4 -15 2 -26 -3 -28 0 -28
30 0 40 9 66 21 58 5 -3 9 0 9 7 0 8 4 8 15 -1 8 -7 22 -10 30 -6z m615 -10
c0 -9 -5 -14 -12 -12 -18 6 -21 28 -4 28 9 0 16 -7 16 -16z m-720 -14 c0 -5
-4 -10 -10 -10 -5 0 -10 5 -10 10 0 6 5 10 10 10 6 0 10 -4 10 -10z m1650 -5
c0 -8 -4 -15 -10 -15 -5 0 -10 7 -10 15 0 8 5 15 10 15 6 0 10 -7 10 -15z
m-1464 -80 c1 -8 -2 -15 -7 -15 -5 0 -9 10 -9 22 0 23 12 17 16 -7z m508 9 c9
-24 7 -34 -7 -28 -14 5 -21 44 -7 44 4 0 11 -7 14 -16z m-67 -39 c-1 -21 -6
-35 -13 -35 -19 0 -25 16 -18 45 10 38 32 31 31 -10z m227 -1 c21 -21 20 -46
-3 -65 -13 -12 -23 -14 -36 -7 -12 7 -20 7 -24 -1 -6 -9 -7 45 -2 82 2 13 49
7 65 -9z m-281 -9 c-3 -9 -8 -14 -10 -11 -3 3 -2 9 2 15 9 16 15 13 8 -4z
m494 9 c-3 -3 -12 -4 -19 -1 -8 3 -5 6 6 6 11 1 17 -2 13 -5z m413 2 c0 -3 -4
-8 -10 -11 -5 -3 -10 -1 -10 4 0 6 5 11 10 11 6 0 10 -2 10 -4z m-720 -26 c0
-5 -4 -10 -10 -10 -5 0 -10 5 -10 10 0 6 5 10 10 10 6 0 10 -4 10 -10z m206
-56 c-3 -8 -13 -14 -23 -14 -17 1 -17 1 0 14 9 7 18 22 18 32 1 18 2 18 6 1 3
-10 2 -25 -1 -33z m-353 -47 c19 -7 19 -28 1 -34 -18 -5 -45 24 -38 42 4 9 10
13 13 8 3 -5 14 -13 24 -16z m343 15 c13 -9 25 -52 14 -52 -4 0 -11 11 -14 25
-4 14 -11 23 -16 20 -5 -3 -11 -1 -15 5 -7 12 15 13 31 2z m-856 -7 c0 -3 -10
-15 -22 -27 -17 -17 -20 -18 -15 -4 4 10 7 22 7 27 0 5 7 9 15 9 8 0 15 -2 15
-5z m437 -9 c-3 -8 1 -13 11 -12 10 1 18 -8 20 -21 2 -13 -1 -23 -7 -23 -6 0
-14 -1 -18 -2 -3 -2 -7 4 -8 12 -2 8 -4 20 -5 25 -4 16 0 35 6 35 3 0 4 -6 1
-14z m271 -15 c3 -8 -1 -12 -9 -9 -7 2 -15 10 -17 17 -3 8 1 12 9 9 7 -2 15
-10 17 -17z m142 -12 c0 -14 -17 -10 -23 5 -4 10 -1 13 9 9 7 -3 14 -9 14 -14z
m-240 -19 c0 -5 -4 -10 -10 -10 -5 0 -10 5 -10 10 0 6 5 10 10 10 6 0 10 -4
10 -10z m-410 -20 c0 -5 -7 -10 -16 -10 -8 0 -12 5 -9 10 3 6 10 10 16 10 5 0
9 -4 9 -10z m-45 -10 c3 -5 1 -10 -4 -10 -6 0 -11 5 -11 10 0 6 2 10 4 10 3 0
8 -4 11 -10z m275 -4 c0 -7 -6 -19 -14 -25 -12 -10 -17 -8 -25 8 -8 14 -8 21
2 24 23 10 37 7 37 -7z m-327 -38 c7 -27 1 -38 -22 -38 -22 0 -41 19 -41 42 0
28 56 25 63 -4z m61 -10 c19 -36 21 -57 6 -42 -10 10 -32 74 -25 74 2 0 11
-14 19 -32z m154 9 c2 -10 -3 -17 -12 -17 -10 0 -16 9 -16 21 0 24 23 21 28
-4z m262 -17 c0 -5 -4 -10 -10 -10 -5 0 -10 5 -10 10 0 6 5 10 10 10 6 0 10
-4 10 -10z m200 -25 c-7 -8 -16 -15 -21 -15 -14 0 -11 38 4 43 20 7 31 -11 17
-28z m-170 15 c0 -5 -4 -10 -10 -10 -5 0 -10 5 -10 10 0 6 5 10 10 10 6 0 10
-4 10 -10z m-270 -10 c0 -5 -5 -10 -11 -10 -5 0 -7 5 -4 10 3 6 8 10 11 10 2
0 4 -4 4 -10z m70 -32 c0 -5 -4 -8 -10 -8 -5 0 -10 10 -10 23 0 18 2 19 10 7
5 -8 10 -18 10 -22z m188 4 c6 -18 -15 -14 -22 4 -4 10 -1 14 6 12 6 -2 14
-10 16 -16z m58 -12 c16 0 19 -37 5 -59 -11 -17 -3 -43 10 -35 20 12 7 -12
-16 -28 -30 -23 -51 -15 -64 24 -9 26 -8 36 6 57 10 14 16 32 14 40 -2 9 3 12
14 7 9 -3 23 -6 31 -6z m732 -8 c2 -7 -3 -12 -12 -12 -9 0 -16 7 -16 16 0 17
22 14 28 -4z m-1038 -30 c0 -13 -12 -22 -22 -16 -10 6 -1 24 13 24 5 0 9 -4 9
-8z m390 -6 c0 -8 -4 -18 -10 -21 -5 -3 -10 3 -10 14 0 12 5 21 10 21 6 0 10
-6 10 -14z m-300 -20 c0 -27 -28 -43 -36 -21 -9 21 3 45 21 45 9 0 15 -9 15
-24z m-10 -87 c0 -5 -4 -9 -10 -9 -5 0 -10 7 -10 16 0 8 5 12 10 9 6 -3 10
-10 10 -16z m80 -19 c0 -5 -4 -10 -10 -10 -5 0 -10 5 -10 10 0 6 5 10 10 10 6
0 10 -4 10 -10z m-242 -42 c3 -32 0 -38 -15 -38 -25 0 -43 19 -43 45 0 28 9
37 35 33 15 -2 21 -12 23 -40z m127 -17 c3 -6 -4 -15 -16 -22 -19 -10 -25 -9
-36 7 -7 10 -13 26 -13 36 0 17 2 17 29 3 17 -8 32 -19 36 -24z m-86 -11 c19
0 42 -39 40 -68 0 -14 -2 -13 -9 3 -5 11 -9 14 -9 8 -2 -22 -38 22 -44 53 -3
16 -4 23 -1 17 3 -7 14 -13 23 -13z m1094 -7 c5 -27 2 -41 -7 -32 -11 10 -17
59 -8 59 5 0 12 -12 15 -27z m-1169 -19 c22 -8 20 -30 -4 -54 -11 -11 -22 -20
-23 -20 -2 0 -4 18 -5 40 -2 40 3 45 32 34z m1090 -161 c8 -19 -8 -38 -23 -29
-16 10 -13 46 3 46 8 0 17 -8 20 -17z"/>
<path d="M2974 2639 c-3 -5 0 -18 6 -30 7 -11 10 -30 7 -40 -3 -10 -1 -19 4
-19 5 0 9 -9 9 -20 0 -31 28 -80 46 -80 12 0 14 7 9 30 -11 52 5 53 50 4 43
-48 75 -64 75 -37 0 21 -20 54 -29 49 -18 -11 -40 30 -39 73 0 26 -6 49 -15
58 -17 17 -114 26 -123 12z m85 -39 c4 0 7 -9 8 -20 2 -22 -17 -26 -35 -8 -18
18 -15 41 4 34 9 -3 19 -6 23 -6z"/>
<path d="M1950 2620 c0 -6 7 -10 15 -10 8 0 15 2 15 4 0 2 -7 6 -15 10 -8 3
-15 1 -15 -4z"/>
<path d="M2440 2584 c0 -11 10 -24 23 -29 19 -9 22 -18 25 -75 3 -85 9 -110
28 -110 12 0 14 13 8 91 l-7 91 34 -4 c25 -2 34 1 34 12 0 10 -15 17 -45 22
-25 4 -57 10 -72 13 -23 6 -28 4 -28 -11z"/>
<path d="M3600 2568 c0 -9 7 -19 16 -22 15 -6 15 -4 3 11 -7 10 -15 20 -16 22
-2 2 -3 -3 -3 -11z"/>
<path d="M1955 2489 c-9 -28 -2 -33 13 -9 6 11 8 21 3 25 -5 3 -13 -4 -16 -16z"/>
<path d="M2001 2444 c0 -11 3 -14 6 -6 3 7 2 16 -1 19 -3 4 -6 -2 -5 -13z"/>
<path d="M2020 2426 c0 -2 7 -7 16 -10 8 -3 12 -2 9 4 -6 10 -25 14 -25 6z"/>
<path d="M3160 2389 c0 -5 5 -7 10 -4 6 3 10 8 10 11 0 2 -4 4 -10 4 -5 0 -10
-5 -10 -11z"/>
<path d="M3661 2384 c0 -11 3 -14 6 -6 3 7 2 16 -1 19 -3 4 -6 -2 -5 -13z"/>
<path d="M2010 2370 c-9 -6 -10 -10 -3 -10 6 0 15 5 18 10 8 12 4 12 -15 0z"/>
<path d="M2030 2305 c0 -8 2 -15 4 -15 2 0 6 7 10 15 3 8 1 15 -4 15 -6 0 -10
-7 -10 -15z"/>
<path d="M3180 2230 c0 -5 5 -10 11 -10 5 0 7 5 4 10 -3 6 -8 10 -11 10 -2 0
-4 -4 -4 -10z"/>
<path d="M3170 2154 c0 -8 5 -12 10 -9 6 3 10 10 10 16 0 5 -4 9 -10 9 -5 0
-10 -7 -10 -16z"/>
<path d="M2617 2153 c-4 -3 -7 -11 -7 -17 0 -6 5 -5 12 2 6 6 9 14 7 17 -3 3
-9 2 -12 -2z"/>
<path d="M1971 2063 c12 -15 12 -16 -6 -9 -16 6 -18 5 -7 -5 6 -7 12 -20 12
-29 0 -9 8 -16 19 -16 17 0 18 3 8 21 -11 20 -13 26 -16 45 0 6 -6 10 -12 10
-8 0 -7 -6 2 -17z"/>
<path d="M3145 2034 c-11 -17 -12 -24 -4 -18 8 5 22 7 32 6 11 -2 17 3 17 17
0 29 -24 26 -45 -5z"/>
<path d="M2868 2033 c7 -3 16 -2 19 1 4 3 -2 6 -13 5 -11 0 -14 -3 -6 -6z"/>
<path d="M2230 1968 c0 -4 4 -8 9 -8 6 0 12 4 15 8 3 5 -1 9 -9 9 -8 0 -15 -4
-15 -9z"/>
<path d="M2298 1973 c7 -3 16 -2 19 1 4 3 -2 6 -13 5 -11 0 -14 -3 -6 -6z"/>
<path d="M2858 1933 c7 -3 16 -2 19 1 4 3 -2 6 -13 5 -11 0 -14 -3 -6 -6z"/>
<path d="M2896 1885 c4 -8 10 -15 15 -15 4 0 6 7 3 15 -4 8 -10 15 -15 15 -4
0 -6 -7 -3 -15z"/>
<path d="M3170 1878 c0 -19 2 -20 10 -8 13 19 13 30 0 30 -5 0 -10 -10 -10
-22z"/>
<path d="M2905 1850 c3 -5 8 -10 11 -10 2 0 4 5 4 10 0 6 -5 10 -11 10 -5 0
-7 -4 -4 -10z"/>
<path d="M2935 1850 c3 -5 11 -10 16 -10 6 0 7 5 4 10 -3 6 -11 10 -16 10 -6
0 -7 -4 -4 -10z"/>
<path d="M2935 1810 c-10 -11 -15 -23 -11 -27 4 -5 12 0 17 10 6 9 14 15 20
12 5 -4 9 -2 9 4 0 20 -18 20 -35 1z"/>
<path d="M2950 1730 c0 -5 5 -10 11 -10 5 0 7 5 4 10 -3 6 -8 10 -11 10 -2 0
-4 -4 -4 -10z"/>
<path d="M2481 1684 c0 -11 3 -14 6 -6 3 7 2 16 -1 19 -3 4 -6 -2 -5 -13z"/>
<path d="M3050 1680 c-8 -5 -12 -12 -9 -15 4 -3 12 1 19 10 14 17 11 19 -10 5z"/>
<path d="M3535 1550 c-3 -5 1 -10 10 -10 9 0 13 5 10 10 -3 6 -8 10 -10 10 -2
0 -7 -4 -10 -10z"/>
<path d="M2520 1526 c0 -8 4 -17 9 -20 5 -4 7 3 4 14 -6 23 -13 26 -13 6z"/>
<path d="M1975 1339 c2 -13 6 -50 10 -82 l7 -58 22 22 23 22 -29 56 c-35 67
-38 70 -33 40z"/>
<path d="M2110 1148 c0 -19 18 -43 25 -36 9 9 -4 48 -16 48 -5 0 -9 -6 -9 -12z"/>
<path d="M2007 1110 c3 -11 12 -20 21 -20 13 0 12 3 -3 20 -10 11 -19 20 -21
20 -1 0 0 -9 3 -20z"/>
<path d="M2830 1047 c0 -10 8 -17 18 -17 9 0 13 4 7 8 -5 4 -13 11 -17 16 -5
5 -8 2 -8 -7z"/>
<path d="M2096 856 c14 -48 98 -176 115 -176 4 0 13 9 19 20 8 14 6 27 -9 54
-45 79 -65 102 -98 113 -31 10 -33 9 -27 -11z m62 -28 c16 -16 15 -38 -2 -38
-18 0 -39 27 -31 40 8 13 18 13 33 -2z"/>
<path d="M2990 769 c0 -7 -13 -10 -35 -7 -19 2 -35 0 -35 -4 0 -4 7 -8 15 -8
9 0 29 -13 45 -30 16 -16 40 -32 55 -36 22 -5 24 -9 13 -23 -12 -14 -11 -15 5
-2 23 18 22 20 -14 33 -23 8 -27 13 -17 19 9 6 7 9 -8 9 -12 0 -27 7 -34 15
-10 12 -10 15 3 15 20 0 31 16 17 25 -5 3 -10 1 -10 -6z"/>
<path d="M2865 630 c-3 -5 -1 -10 4 -10 6 0 11 5 11 10 0 6 -2 10 -4 10 -3 0
-8 -4 -11 -10z"/>
<path d="M2860 559 c0 -5 5 -7 10 -4 6 3 10 8 10 11 0 2 -4 4 -10 4 -5 0 -10
-5 -10 -11z"/>
<path d="M2856 532 c-3 -5 1 -9 9 -9 8 0 12 4 9 9 -3 4 -7 8 -9 8 -2 0 -6 -4
-9 -8z"/>
</g>
</svg>
